<?xml version="1.0" encoding="utf-8"?>
<!-- Generator: Adobe Illustrator 16.0.4, SVG Export Plug-In . SVG Version: 6.00 Build 0)  -->
<!DOCTYPE svg PUBLIC "-//W3C//DTD SVG 1.1//EN" "http://www.w3.org/Graphics/SVG/1.1/DTD/svg11.dtd">
<svg version="1.1" id="Layer_1" xmlns="http://www.w3.org/2000/svg" xmlns:xlink="http://www.w3.org/1999/xlink" x="0px" y="0px"
	 width="1275.59px" height="618.074px" viewBox="0 0 1275.59 618.074" enable-background="new 0 0 1275.59 618.074"
	 xml:space="preserve">
<g>
	<g>
		<defs>
			<rect id="SVGID_1_" width="1275.59" height="618.074"/>
		</defs>
		<clipPath id="SVGID_2_">
			<use xlink:href="#SVGID_1_"  overflow="visible"/>
		</clipPath>
		<g clip-path="url(#SVGID_2_)">
			<g>
				<rect fill="#E6E7E8" width="1275.59" height="618.074"/>
				<g>
					<line fill="none" stroke="#E6E7E8" stroke-miterlimit="10" x1="1" y1="0.164" x2="-52.294" y2="622.164"/>
					<line fill="none" stroke="#E6E7E8" stroke-miterlimit="10" x1="4.826" y1="0.164" x2="-48.468" y2="622.164"/>
					<line fill="none" stroke="#E6E7E8" stroke-miterlimit="10" x1="8.649" y1="0.164" x2="-44.646" y2="622.164"/>
					<line fill="none" stroke="#E6E7E8" stroke-miterlimit="10" x1="12.471" y1="0.163" x2="-40.824" y2="622.163"/>
					<line fill="none" stroke="#E6E7E8" stroke-miterlimit="10" x1="16.293" y1="0.164" x2="-37.001" y2="622.164"/>
					<line fill="none" stroke="#E6E7E8" stroke-miterlimit="10" x1="20.115" y1="0.164" x2="-33.179" y2="622.164"/>
					<line fill="none" stroke="#E6E7E8" stroke-miterlimit="10" x1="23.937" y1="0.163" x2="-29.357" y2="622.164"/>
					<line fill="none" stroke="#E6E7E8" stroke-miterlimit="10" x1="27.76" y1="0.164" x2="-25.535" y2="622.164"/>
					<line fill="none" stroke="#E6E7E8" stroke-miterlimit="10" x1="31.582" y1="0.164" x2="-21.712" y2="622.164"/>
					<line fill="none" stroke="#E6E7E8" stroke-miterlimit="10" x1="35.404" y1="0.164" x2="-17.891" y2="622.164"/>
					<line fill="none" stroke="#E6E7E8" stroke-miterlimit="10" x1="39.226" y1="0.164" x2="-14.068" y2="622.164"/>
					<line fill="none" stroke="#E6E7E8" stroke-miterlimit="10" x1="43.048" y1="0.164" x2="-10.246" y2="622.164"/>
					<line fill="none" stroke="#E6E7E8" stroke-miterlimit="10" x1="46.871" y1="0.164" x2="-6.424" y2="622.163"/>
					<line fill="none" stroke="#E6E7E8" stroke-miterlimit="10" x1="50.693" y1="0.164" x2="-2.602" y2="622.164"/>
					<line fill="none" stroke="#E6E7E8" stroke-miterlimit="10" x1="54.515" y1="0.164" x2="1.221" y2="622.164"/>
					<line fill="none" stroke="#E6E7E8" stroke-miterlimit="10" x1="58.337" y1="0.163" x2="5.042" y2="622.164"/>
					<line fill="none" stroke="#E6E7E8" stroke-miterlimit="10" x1="62.159" y1="0.164" x2="8.865" y2="622.164"/>
					<line fill="none" stroke="#E6E7E8" stroke-miterlimit="10" x1="65.982" y1="0.164" x2="12.687" y2="622.164"/>
					<line fill="none" stroke="#E6E7E8" stroke-miterlimit="10" x1="69.803" y1="0.164" x2="16.509" y2="622.164"/>
					<line fill="none" stroke="#E6E7E8" stroke-miterlimit="10" x1="73.626" y1="0.164" x2="20.331" y2="622.164"/>
					<line fill="none" stroke="#E6E7E8" stroke-miterlimit="10" x1="77.448" y1="0.164" x2="24.154" y2="622.164"/>
					<line fill="none" stroke="#E6E7E8" stroke-miterlimit="10" x1="81.27" y1="0.164" x2="27.976" y2="622.164"/>
					<line fill="none" stroke="#E6E7E8" stroke-miterlimit="10" x1="85.092" y1="0.164" x2="31.798" y2="622.164"/>
					<line fill="none" stroke="#E6E7E8" stroke-miterlimit="10" x1="88.915" y1="0.164" x2="35.621" y2="622.164"/>
					<line fill="none" stroke="#E6E7E8" stroke-miterlimit="10" x1="92.737" y1="0.163" x2="39.442" y2="622.164"/>
					<line fill="none" stroke="#E6E7E8" stroke-miterlimit="10" x1="96.559" y1="0.164" x2="43.265" y2="622.164"/>
					<line fill="none" stroke="#E6E7E8" stroke-miterlimit="10" x1="100.381" y1="0.164" x2="47.087" y2="622.164"/>
					<line fill="none" stroke="#E6E7E8" stroke-miterlimit="10" x1="104.203" y1="0.164" x2="50.909" y2="622.164"/>
					<line fill="none" stroke="#E6E7E8" stroke-miterlimit="10" x1="108.025" y1="0.164" x2="54.731" y2="622.164"/>
					<line fill="none" stroke="#E6E7E8" stroke-miterlimit="10" x1="111.848" y1="0.164" x2="58.554" y2="622.164"/>
					<line fill="none" stroke="#E6E7E8" stroke-miterlimit="10" x1="115.67" y1="0.164" x2="62.375" y2="622.164"/>
					<line fill="none" stroke="#E6E7E8" stroke-miterlimit="10" x1="119.493" y1="0.164" x2="66.198" y2="622.164"/>
					<line fill="none" stroke="#E6E7E8" stroke-miterlimit="10" x1="123.314" y1="0.164" x2="70.02" y2="622.164"/>
					<line fill="none" stroke="#E6E7E8" stroke-miterlimit="10" x1="127.137" y1="0.163" x2="73.842" y2="622.164"/>
					<line fill="none" stroke="#E6E7E8" stroke-miterlimit="10" x1="130.959" y1="0.164" x2="77.665" y2="622.164"/>
					<line fill="none" stroke="#E6E7E8" stroke-miterlimit="10" x1="134.781" y1="0.163" x2="81.486" y2="622.164"/>
					<line fill="none" stroke="#E6E7E8" stroke-miterlimit="10" x1="138.604" y1="0.164" x2="85.309" y2="622.164"/>
					<line fill="none" stroke="#E6E7E8" stroke-miterlimit="10" x1="142.425" y1="0.164" x2="89.131" y2="622.164"/>
					<line fill="none" stroke="#E6E7E8" stroke-miterlimit="10" x1="146.248" y1="0.164" x2="92.953" y2="622.164"/>
					<line fill="none" stroke="#E6E7E8" stroke-miterlimit="10" x1="150.07" y1="0.164" x2="96.775" y2="622.164"/>
					<line fill="none" stroke="#E6E7E8" stroke-miterlimit="10" x1="153.892" y1="0.164" x2="100.597" y2="622.164"/>
					<line fill="none" stroke="#E6E7E8" stroke-miterlimit="10" x1="157.714" y1="0.164" x2="104.42" y2="622.164"/>
					<line fill="none" stroke="#E6E7E8" stroke-miterlimit="10" x1="161.537" y1="0.164" x2="108.242" y2="622.164"/>
					<line fill="none" stroke="#E6E7E8" stroke-miterlimit="10" x1="165.358" y1="0.164" x2="112.064" y2="622.164"/>
					<line fill="none" stroke="#E6E7E8" stroke-miterlimit="10" x1="169.181" y1="0.164" x2="115.886" y2="622.164"/>
					<line fill="none" stroke="#E6E7E8" stroke-miterlimit="10" x1="173.003" y1="0.164" x2="119.708" y2="622.164"/>
					<line fill="none" stroke="#E6E7E8" stroke-miterlimit="10" x1="176.825" y1="0.163" x2="123.531" y2="622.164"/>
					<line fill="none" stroke="#E6E7E8" stroke-miterlimit="10" x1="180.647" y1="0.164" x2="127.353" y2="622.164"/>
					<line fill="none" stroke="#E6E7E8" stroke-miterlimit="10" x1="184.47" y1="0.164" x2="131.175" y2="622.164"/>
					<line fill="none" stroke="#E6E7E8" stroke-miterlimit="10" x1="188.292" y1="0.164" x2="134.998" y2="622.164"/>
					<line fill="none" stroke="#E6E7E8" stroke-miterlimit="10" x1="192.114" y1="0.164" x2="138.82" y2="622.164"/>
					<line fill="none" stroke="#E6E7E8" stroke-miterlimit="10" x1="195.936" y1="0.163" x2="142.641" y2="622.164"/>
					<line fill="none" stroke="#E6E7E8" stroke-miterlimit="10" x1="199.758" y1="0.164" x2="146.464" y2="622.164"/>
					<line fill="none" stroke="#E6E7E8" stroke-miterlimit="10" x1="203.581" y1="0.164" x2="150.286" y2="622.164"/>
					<line fill="none" stroke="#E6E7E8" stroke-miterlimit="10" x1="207.402" y1="0.164" x2="154.108" y2="622.164"/>
					<line fill="none" stroke="#E6E7E8" stroke-miterlimit="10" x1="211.225" y1="0.164" x2="157.93" y2="622.164"/>
					<line fill="none" stroke="#E6E7E8" stroke-miterlimit="10" x1="215.047" y1="0.164" x2="161.752" y2="622.164"/>
					<line fill="none" stroke="#E6E7E8" stroke-miterlimit="10" x1="218.87" y1="0.164" x2="165.575" y2="622.164"/>
					<line fill="none" stroke="#E6E7E8" stroke-miterlimit="10" x1="222.692" y1="0.164" x2="169.397" y2="622.164"/>
					<line fill="none" stroke="#E6E7E8" stroke-miterlimit="10" x1="226.513" y1="0.164" x2="173.219" y2="622.164"/>
					<line fill="none" stroke="#E6E7E8" stroke-miterlimit="10" x1="230.336" y1="0.164" x2="177.042" y2="622.164"/>
					<line fill="none" stroke="#E6E7E8" stroke-miterlimit="10" x1="234.158" y1="0.164" x2="180.864" y2="622.164"/>
					<line fill="none" stroke="#E6E7E8" stroke-miterlimit="10" x1="237.98" y1="0.163" x2="184.686" y2="622.164"/>
					<line fill="none" stroke="#E6E7E8" stroke-miterlimit="10" x1="241.802" y1="0.164" x2="188.508" y2="622.164"/>
					<line fill="none" stroke="#E6E7E8" stroke-miterlimit="10" x1="245.625" y1="0.164" x2="192.33" y2="622.164"/>
					<line fill="none" stroke="#E6E7E8" stroke-miterlimit="10" x1="249.447" y1="0.164" x2="196.153" y2="622.164"/>
					<line fill="none" stroke="#E6E7E8" stroke-miterlimit="10" x1="253.269" y1="0.164" x2="199.975" y2="622.164"/>
					<line fill="none" stroke="#E6E7E8" stroke-miterlimit="10" x1="257.091" y1="0.164" x2="203.796" y2="622.164"/>
					<line fill="none" stroke="#E6E7E8" stroke-miterlimit="10" x1="260.913" y1="0.164" x2="207.619" y2="622.164"/>
					<line fill="none" stroke="#E6E7E8" stroke-miterlimit="10" x1="264.736" y1="0.164" x2="211.441" y2="622.164"/>
					<line fill="none" stroke="#E6E7E8" stroke-miterlimit="10" x1="268.558" y1="0.164" x2="215.263" y2="622.164"/>
					<line fill="none" stroke="#E6E7E8" stroke-miterlimit="10" x1="272.379" y1="0.164" x2="219.085" y2="622.164"/>
					<line fill="none" stroke="#E6E7E8" stroke-miterlimit="10" x1="276.202" y1="0.164" x2="222.908" y2="622.164"/>
					<line fill="none" stroke="#E6E7E8" stroke-miterlimit="10" x1="280.024" y1="0.164" x2="226.73" y2="622.164"/>
					<line fill="none" stroke="#E6E7E8" stroke-miterlimit="10" x1="283.847" y1="0.164" x2="230.552" y2="622.164"/>
					<line fill="none" stroke="#E6E7E8" stroke-miterlimit="10" x1="287.668" y1="0.164" x2="234.374" y2="622.164"/>
					<line fill="none" stroke="#E6E7E8" stroke-miterlimit="10" x1="291.491" y1="0.164" x2="238.196" y2="622.164"/>
					<line fill="none" stroke="#E6E7E8" stroke-miterlimit="10" x1="295.313" y1="0.164" x2="242.019" y2="622.164"/>
					<line fill="none" stroke="#E6E7E8" stroke-miterlimit="10" x1="299.135" y1="0.163" x2="245.84" y2="622.164"/>
					<line fill="none" stroke="#E6E7E8" stroke-miterlimit="10" x1="302.958" y1="0.164" x2="249.663" y2="622.164"/>
					<line fill="none" stroke="#E6E7E8" stroke-miterlimit="10" x1="306.78" y1="0.164" x2="253.485" y2="622.164"/>
					<line fill="none" stroke="#E6E7E8" stroke-miterlimit="10" x1="310.602" y1="0.164" x2="257.308" y2="622.164"/>
					<line fill="none" stroke="#E6E7E8" stroke-miterlimit="10" x1="314.424" y1="0.164" x2="261.129" y2="622.164"/>
					<line fill="none" stroke="#E6E7E8" stroke-miterlimit="10" x1="318.246" y1="0.164" x2="264.952" y2="622.164"/>
					<line fill="none" stroke="#E6E7E8" stroke-miterlimit="10" x1="322.068" y1="0.164" x2="268.774" y2="622.164"/>
					<line fill="none" stroke="#E6E7E8" stroke-miterlimit="10" x1="325.891" y1="0.164" x2="272.596" y2="622.164"/>
					<line fill="none" stroke="#E6E7E8" stroke-miterlimit="10" x1="329.712" y1="0.164" x2="276.417" y2="622.164"/>
					<line fill="none" stroke="#E6E7E8" stroke-miterlimit="10" x1="333.535" y1="0.164" x2="280.24" y2="622.164"/>
					<line fill="none" stroke="#E6E7E8" stroke-miterlimit="10" x1="337.357" y1="0.164" x2="284.062" y2="622.164"/>
					<line fill="none" stroke="#E6E7E8" stroke-miterlimit="10" x1="341.18" y1="0.164" x2="287.885" y2="622.164"/>
					<line fill="none" stroke="#E6E7E8" stroke-miterlimit="10" x1="345.001" y1="0.164" x2="291.707" y2="622.164"/>
					<line fill="none" stroke="#E6E7E8" stroke-miterlimit="10" x1="348.824" y1="0.163" x2="295.529" y2="622.164"/>
					<line fill="none" stroke="#E6E7E8" stroke-miterlimit="10" x1="352.646" y1="0.164" x2="299.352" y2="622.164"/>
					<line fill="none" stroke="#E6E7E8" stroke-miterlimit="10" x1="356.468" y1="0.164" x2="303.174" y2="622.164"/>
					<line fill="none" stroke="#E6E7E8" stroke-miterlimit="10" x1="360.291" y1="0.164" x2="306.996" y2="622.164"/>
					<line fill="none" stroke="#E6E7E8" stroke-miterlimit="10" x1="364.112" y1="0.164" x2="310.818" y2="622.164"/>
					<line fill="none" stroke="#E6E7E8" stroke-miterlimit="10" x1="367.935" y1="0.164" x2="314.64" y2="622.164"/>
					<line fill="none" stroke="#E6E7E8" stroke-miterlimit="10" x1="371.757" y1="0.164" x2="318.462" y2="622.164"/>
					<line fill="none" stroke="#E6E7E8" stroke-miterlimit="10" x1="375.58" y1="0.164" x2="322.285" y2="622.164"/>
					<line fill="none" stroke="#E6E7E8" stroke-miterlimit="10" x1="379.401" y1="0.164" x2="326.106" y2="622.164"/>
					<line fill="none" stroke="#E6E7E8" stroke-miterlimit="10" x1="383.224" y1="0.164" x2="329.929" y2="622.164"/>
					<line fill="none" stroke="#E6E7E8" stroke-miterlimit="10" x1="387.046" y1="0.164" x2="333.751" y2="622.164"/>
					<line fill="none" stroke="#E6E7E8" stroke-miterlimit="10" x1="390.868" y1="0.164" x2="337.574" y2="622.164"/>
					<line fill="none" stroke="#E6E7E8" stroke-miterlimit="10" x1="394.69" y1="0.164" x2="341.395" y2="622.164"/>
					<line fill="none" stroke="#E6E7E8" stroke-miterlimit="10" x1="398.512" y1="0.164" x2="345.217" y2="622.164"/>
					<line fill="none" stroke="#E6E7E8" stroke-miterlimit="10" x1="402.335" y1="0.164" x2="349.041" y2="622.164"/>
					<line fill="none" stroke="#E6E7E8" stroke-miterlimit="10" x1="406.157" y1="0.164" x2="352.862" y2="622.164"/>
					<line fill="none" stroke="#E6E7E8" stroke-miterlimit="10" x1="409.979" y1="0.163" x2="356.684" y2="622.164"/>
					<line fill="none" stroke="#E6E7E8" stroke-miterlimit="10" x1="413.801" y1="0.164" x2="360.506" y2="622.164"/>
					<line fill="none" stroke="#E6E7E8" stroke-miterlimit="10" x1="417.624" y1="0.164" x2="364.329" y2="622.164"/>
					<line fill="none" stroke="#E6E7E8" stroke-miterlimit="10" x1="421.446" y1="0.164" x2="368.151" y2="622.164"/>
					<line fill="none" stroke="#E6E7E8" stroke-miterlimit="10" x1="425.267" y1="0.164" x2="371.973" y2="622.164"/>
					<line fill="none" stroke="#E6E7E8" stroke-miterlimit="10" x1="429.09" y1="0.164" x2="375.795" y2="622.164"/>
					<line fill="none" stroke="#E6E7E8" stroke-miterlimit="10" x1="432.913" y1="0.164" x2="379.618" y2="622.164"/>
					<line fill="none" stroke="#E6E7E8" stroke-miterlimit="10" x1="436.735" y1="0.164" x2="383.44" y2="622.164"/>
					<line fill="none" stroke="#E6E7E8" stroke-miterlimit="10" x1="440.556" y1="0.164" x2="387.262" y2="622.164"/>
					<line fill="none" stroke="#E6E7E8" stroke-miterlimit="10" x1="444.378" y1="0.164" x2="391.084" y2="622.164"/>
					<line fill="none" stroke="#E6E7E8" stroke-miterlimit="10" x1="448.202" y1="0.164" x2="394.907" y2="622.164"/>
					<line fill="none" stroke="#E6E7E8" stroke-miterlimit="10" x1="452.023" y1="0.164" x2="398.729" y2="622.164"/>
					<line fill="none" stroke="#E6E7E8" stroke-miterlimit="10" x1="455.845" y1="0.164" x2="402.55" y2="622.164"/>
					<line fill="none" stroke="#E6E7E8" stroke-miterlimit="10" x1="459.667" y1="0.164" x2="406.374" y2="622.164"/>
					<line fill="none" stroke="#E6E7E8" stroke-miterlimit="10" x1="463.49" y1="0.164" x2="410.196" y2="622.164"/>
					<line fill="none" stroke="#E6E7E8" stroke-miterlimit="10" x1="467.312" y1="0.164" x2="414.017" y2="622.164"/>
					<line fill="none" stroke="#E6E7E8" stroke-miterlimit="10" x1="471.134" y1="0.164" x2="417.839" y2="622.164"/>
					<line fill="none" stroke="#E6E7E8" stroke-miterlimit="10" x1="474.957" y1="0.164" x2="421.662" y2="622.164"/>
					<line fill="none" stroke="#E6E7E8" stroke-miterlimit="10" x1="478.779" y1="0.164" x2="425.484" y2="622.164"/>
					<line fill="none" stroke="#E6E7E8" stroke-miterlimit="10" x1="482.601" y1="0.164" x2="429.306" y2="622.164"/>
					<line fill="none" stroke="#E6E7E8" stroke-miterlimit="10" x1="486.423" y1="0.163" x2="433.128" y2="622.164"/>
					<line fill="none" stroke="#E6E7E8" stroke-miterlimit="10" x1="490.246" y1="0.164" x2="436.951" y2="622.164"/>
					<line fill="none" stroke="#E6E7E8" stroke-miterlimit="10" x1="494.068" y1="0.164" x2="440.773" y2="622.164"/>
					<line fill="none" stroke="#E6E7E8" stroke-miterlimit="10" x1="497.889" y1="0.164" x2="444.595" y2="622.164"/>
					<line fill="none" stroke="#E6E7E8" stroke-miterlimit="10" x1="501.711" y1="0.164" x2="448.417" y2="622.164"/>
					<line fill="none" stroke="#E6E7E8" stroke-miterlimit="10" x1="505.534" y1="0.164" x2="452.239" y2="622.164"/>
					<line fill="none" stroke="#E6E7E8" stroke-miterlimit="10" x1="509.357" y1="0.164" x2="456.062" y2="622.164"/>
					<line fill="none" stroke="#E6E7E8" stroke-miterlimit="10" x1="513.178" y1="0.164" x2="459.884" y2="622.164"/>
					<line fill="none" stroke="#E6E7E8" stroke-miterlimit="10" x1="517" y1="0.164" x2="463.706" y2="622.164"/>
					<line fill="none" stroke="#E6E7E8" stroke-miterlimit="10" x1="520.823" y1="0.164" x2="467.528" y2="622.164"/>
					<line fill="none" stroke="#E6E7E8" stroke-miterlimit="10" x1="524.645" y1="0.164" x2="471.351" y2="622.164"/>
					<line fill="none" stroke="#E6E7E8" stroke-miterlimit="10" x1="528.467" y1="0.164" x2="475.173" y2="622.164"/>
					<line fill="none" stroke="#E6E7E8" stroke-miterlimit="10" x1="532.289" y1="0.164" x2="478.995" y2="622.164"/>
					<line fill="none" stroke="#E6E7E8" stroke-miterlimit="10" x1="536.112" y1="0.164" x2="482.817" y2="622.164"/>
					<line fill="none" stroke="#E6E7E8" stroke-miterlimit="10" x1="539.934" y1="0.164" x2="486.64" y2="622.164"/>
					<line fill="none" stroke="#E6E7E8" stroke-miterlimit="10" x1="543.756" y1="0.164" x2="490.461" y2="622.164"/>
					<line fill="none" stroke="#E6E7E8" stroke-miterlimit="10" x1="547.578" y1="0.164" x2="494.284" y2="622.164"/>
					<line fill="none" stroke="#E6E7E8" stroke-miterlimit="10" x1="551.401" y1="0.164" x2="498.106" y2="622.164"/>
					<line fill="none" stroke="#E6E7E8" stroke-miterlimit="10" x1="555.223" y1="0.164" x2="501.928" y2="622.164"/>
					<line fill="none" stroke="#E6E7E8" stroke-miterlimit="10" x1="559.045" y1="0.164" x2="505.75" y2="622.164"/>
					<line fill="none" stroke="#E6E7E8" stroke-miterlimit="10" x1="562.867" y1="0.163" x2="509.572" y2="622.164"/>
					<line fill="none" stroke="#E6E7E8" stroke-miterlimit="10" x1="566.689" y1="0.164" x2="513.395" y2="622.164"/>
					<line fill="none" stroke="#E6E7E8" stroke-miterlimit="10" x1="570.512" y1="0.164" x2="517.217" y2="622.164"/>
					<line fill="none" stroke="#E6E7E8" stroke-miterlimit="10" x1="574.333" y1="0.164" x2="521.039" y2="622.164"/>
					<line fill="none" stroke="#E6E7E8" stroke-miterlimit="10" x1="578.156" y1="0.164" x2="524.861" y2="622.164"/>
					<line fill="none" stroke="#E6E7E8" stroke-miterlimit="10" x1="581.978" y1="0.164" x2="528.684" y2="622.164"/>
					<line fill="none" stroke="#E6E7E8" stroke-miterlimit="10" x1="585.8" y1="0.164" x2="532.506" y2="622.164"/>
					<line fill="none" stroke="#E6E7E8" stroke-miterlimit="10" x1="589.623" y1="0.164" x2="536.328" y2="622.164"/>
					<line fill="none" stroke="#E6E7E8" stroke-miterlimit="10" x1="593.445" y1="0.164" x2="540.15" y2="622.164"/>
					<line fill="none" stroke="#E6E7E8" stroke-miterlimit="10" x1="597.267" y1="0.164" x2="543.972" y2="622.164"/>
					<line fill="none" stroke="#E6E7E8" stroke-miterlimit="10" x1="601.089" y1="0.164" x2="547.794" y2="622.164"/>
					<line fill="none" stroke="#E6E7E8" stroke-miterlimit="10" x1="604.912" y1="0.164" x2="551.617" y2="622.164"/>
					<line fill="none" stroke="#E6E7E8" stroke-miterlimit="10" x1="608.733" y1="0.164" x2="555.439" y2="622.164"/>
					<line fill="none" stroke="#E6E7E8" stroke-miterlimit="10" x1="612.556" y1="0.164" x2="559.261" y2="622.164"/>
					<line fill="none" stroke="#E6E7E8" stroke-miterlimit="10" x1="616.378" y1="0.164" x2="563.083" y2="622.164"/>
					<line fill="none" stroke="#E6E7E8" stroke-miterlimit="10" x1="620.201" y1="0.164" x2="566.906" y2="622.164"/>
					<line fill="none" stroke="#E6E7E8" stroke-miterlimit="10" x1="624.022" y1="0.164" x2="570.728" y2="622.164"/>
					<line fill="none" stroke="#E6E7E8" stroke-miterlimit="10" x1="627.845" y1="0.164" x2="574.55" y2="622.164"/>
					<line fill="none" stroke="#E6E7E8" stroke-miterlimit="10" x1="631.667" y1="0.164" x2="578.373" y2="622.164"/>
					<line fill="none" stroke="#E6E7E8" stroke-miterlimit="10" x1="635.489" y1="0.164" x2="582.195" y2="622.164"/>
					<line fill="none" stroke="#E6E7E8" stroke-miterlimit="10" x1="639.311" y1="0.163" x2="586.017" y2="622.164"/>
					<line fill="none" stroke="#E6E7E8" stroke-miterlimit="10" x1="643.134" y1="0.164" x2="589.838" y2="622.164"/>
					<line fill="none" stroke="#E6E7E8" stroke-miterlimit="10" x1="646.957" y1="0.164" x2="593.661" y2="622.164"/>
					<line fill="none" stroke="#E6E7E8" stroke-miterlimit="10" x1="650.778" y1="0.164" x2="597.483" y2="622.164"/>
					<line fill="none" stroke="#E6E7E8" stroke-miterlimit="10" x1="654.6" y1="0.164" x2="601.305" y2="622.164"/>
					<line fill="none" stroke="#E6E7E8" stroke-miterlimit="10" x1="658.422" y1="0.164" x2="605.127" y2="622.164"/>
					<line fill="none" stroke="#E6E7E8" stroke-miterlimit="10" x1="662.245" y1="0.164" x2="608.95" y2="622.164"/>
					<line fill="none" stroke="#E6E7E8" stroke-miterlimit="10" x1="666.067" y1="0.164" x2="612.772" y2="622.164"/>
					<line fill="none" stroke="#E6E7E8" stroke-miterlimit="10" x1="669.889" y1="0.164" x2="616.594" y2="622.164"/>
					<line fill="none" stroke="#E6E7E8" stroke-miterlimit="10" x1="673.711" y1="0.164" x2="620.417" y2="622.164"/>
					<line fill="none" stroke="#E6E7E8" stroke-miterlimit="10" x1="677.534" y1="0.164" x2="624.239" y2="622.164"/>
					<line fill="none" stroke="#E6E7E8" stroke-miterlimit="10" x1="681.356" y1="0.164" x2="628.061" y2="622.164"/>
					<line fill="none" stroke="#E6E7E8" stroke-miterlimit="10" x1="685.177" y1="0.164" x2="631.883" y2="622.164"/>
					<line fill="none" stroke="#E6E7E8" stroke-miterlimit="10" x1="689" y1="0.164" x2="635.705" y2="622.164"/>
					<line fill="none" stroke="#E6E7E8" stroke-miterlimit="10" x1="692.822" y1="0.164" x2="639.528" y2="622.164"/>
					<line fill="none" stroke="#E6E7E8" stroke-miterlimit="10" x1="696.644" y1="0.164" x2="643.35" y2="622.164"/>
					<line fill="none" stroke="#E6E7E8" stroke-miterlimit="10" x1="700.466" y1="0.164" x2="647.171" y2="622.164"/>
					<line fill="none" stroke="#E6E7E8" stroke-miterlimit="10" x1="704.289" y1="0.164" x2="650.994" y2="622.164"/>
					<line fill="none" stroke="#E6E7E8" stroke-miterlimit="10" x1="708.111" y1="0.164" x2="654.816" y2="622.164"/>
					<line fill="none" stroke="#E6E7E8" stroke-miterlimit="10" x1="711.933" y1="0.164" x2="658.638" y2="622.164"/>
					<line fill="none" stroke="#E6E7E8" stroke-miterlimit="10" x1="715.755" y1="0.164" x2="662.46" y2="622.164"/>
					<line fill="none" stroke="#E6E7E8" stroke-miterlimit="10" x1="719.577" y1="0.164" x2="666.283" y2="622.164"/>
					<line fill="none" stroke="#E6E7E8" stroke-miterlimit="10" x1="723.399" y1="0.164" x2="670.105" y2="622.164"/>
					<line fill="none" stroke="#E6E7E8" stroke-miterlimit="10" x1="727.221" y1="0.164" x2="673.927" y2="622.164"/>
					<line fill="none" stroke="#E6E7E8" stroke-miterlimit="10" x1="731.043" y1="0.164" x2="677.749" y2="622.164"/>
					<line fill="none" stroke="#E6E7E8" stroke-miterlimit="10" x1="734.866" y1="0.164" x2="681.571" y2="622.164"/>
					<line fill="none" stroke="#E6E7E8" stroke-miterlimit="10" x1="738.688" y1="0.164" x2="685.393" y2="622.164"/>
					<line fill="none" stroke="#E6E7E8" stroke-miterlimit="10" x1="742.51" y1="0.164" x2="689.215" y2="622.164"/>
					<line fill="none" stroke="#E6E7E8" stroke-miterlimit="10" x1="746.333" y1="0.164" x2="693.038" y2="622.164"/>
					<line fill="none" stroke="#E6E7E8" stroke-miterlimit="10" x1="750.155" y1="0.164" x2="696.86" y2="622.164"/>
					<line fill="none" stroke="#E6E7E8" stroke-miterlimit="10" x1="753.977" y1="0.164" x2="700.682" y2="622.164"/>
					<line fill="none" stroke="#E6E7E8" stroke-miterlimit="10" x1="757.799" y1="0.164" x2="704.504" y2="622.164"/>
					<line fill="none" stroke="#E6E7E8" stroke-miterlimit="10" x1="761.622" y1="0.164" x2="708.327" y2="622.164"/>
					<line fill="none" stroke="#E6E7E8" stroke-miterlimit="10" x1="765.444" y1="0.164" x2="712.149" y2="622.164"/>
					<line fill="none" stroke="#E6E7E8" stroke-miterlimit="10" x1="769.265" y1="0.164" x2="715.97" y2="622.164"/>
					<line fill="none" stroke="#E6E7E8" stroke-miterlimit="10" x1="773.087" y1="0.164" x2="719.793" y2="622.164"/>
					<line fill="none" stroke="#E6E7E8" stroke-miterlimit="10" x1="776.91" y1="0.164" x2="723.615" y2="622.164"/>
					<line fill="none" stroke="#E6E7E8" stroke-miterlimit="10" x1="780.732" y1="0.164" x2="727.437" y2="622.164"/>
					<line fill="none" stroke="#E6E7E8" stroke-miterlimit="10" x1="784.554" y1="0.164" x2="731.259" y2="622.164"/>
					<line fill="none" stroke="#E6E7E8" stroke-miterlimit="10" x1="788.375" y1="0.164" x2="735.082" y2="622.164"/>
					<line fill="none" stroke="#E6E7E8" stroke-miterlimit="10" x1="792.199" y1="0.164" x2="738.904" y2="622.164"/>
					<line fill="none" stroke="#E6E7E8" stroke-miterlimit="10" x1="796.02" y1="0.164" x2="742.726" y2="622.164"/>
					<line fill="none" stroke="#E6E7E8" stroke-miterlimit="10" x1="799.843" y1="0.164" x2="746.548" y2="622.164"/>
					<line fill="none" stroke="#E6E7E8" stroke-miterlimit="10" x1="803.665" y1="0.164" x2="750.37" y2="622.164"/>
					<line fill="none" stroke="#E6E7E8" stroke-miterlimit="10" x1="807.487" y1="0.164" x2="754.192" y2="622.164"/>
					<line fill="none" stroke="#E6E7E8" stroke-miterlimit="10" x1="811.309" y1="0.164" x2="758.014" y2="622.164"/>
					<line fill="none" stroke="#E6E7E8" stroke-miterlimit="10" x1="815.131" y1="0.164" x2="761.836" y2="622.164"/>
					<line fill="none" stroke="#E6E7E8" stroke-miterlimit="10" x1="818.954" y1="0.164" x2="765.659" y2="622.164"/>
					<line fill="none" stroke="#E6E7E8" stroke-miterlimit="10" x1="822.776" y1="0.164" x2="769.481" y2="622.164"/>
					<line fill="none" stroke="#E6E7E8" stroke-miterlimit="10" x1="826.598" y1="0.164" x2="773.303" y2="622.164"/>
					<line fill="none" stroke="#E6E7E8" stroke-miterlimit="10" x1="830.42" y1="0.164" x2="777.125" y2="622.164"/>
					<line fill="none" stroke="#E6E7E8" stroke-miterlimit="10" x1="834.243" y1="0.164" x2="780.948" y2="622.164"/>
					<line fill="none" stroke="#E6E7E8" stroke-miterlimit="10" x1="838.065" y1="0.164" x2="784.77" y2="622.164"/>
					<line fill="none" stroke="#E6E7E8" stroke-miterlimit="10" x1="841.886" y1="0.164" x2="788.592" y2="622.164"/>
					<line fill="none" stroke="#E6E7E8" stroke-miterlimit="10" x1="845.708" y1="0.164" x2="792.414" y2="622.164"/>
					<line fill="none" stroke="#E6E7E8" stroke-miterlimit="10" x1="849.531" y1="0.164" x2="796.237" y2="622.164"/>
					<line fill="none" stroke="#E6E7E8" stroke-miterlimit="10" x1="853.353" y1="0.164" x2="800.058" y2="622.164"/>
					<line fill="none" stroke="#E6E7E8" stroke-miterlimit="10" x1="857.175" y1="0.164" x2="803.88" y2="622.164"/>
					<line fill="none" stroke="#E6E7E8" stroke-miterlimit="10" x1="860.998" y1="0.164" x2="807.703" y2="622.164"/>
					<line fill="none" stroke="#E6E7E8" stroke-miterlimit="10" x1="864.819" y1="0.164" x2="811.525" y2="622.164"/>
					<line fill="none" stroke="#E6E7E8" stroke-miterlimit="10" x1="868.642" y1="0.164" x2="815.347" y2="622.164"/>
					<line fill="none" stroke="#E6E7E8" stroke-miterlimit="10" x1="872.463" y1="0.164" x2="819.168" y2="622.164"/>
					<line fill="none" stroke="#E6E7E8" stroke-miterlimit="10" x1="876.286" y1="0.164" x2="822.992" y2="622.164"/>
					<line fill="none" stroke="#E6E7E8" stroke-miterlimit="10" x1="880.108" y1="0.164" x2="826.813" y2="622.164"/>
					<line fill="none" stroke="#E6E7E8" stroke-miterlimit="10" x1="883.93" y1="0.164" x2="830.635" y2="622.164"/>
					<line fill="none" stroke="#E6E7E8" stroke-miterlimit="10" x1="887.752" y1="0.164" x2="834.458" y2="622.164"/>
					<line fill="none" stroke="#E6E7E8" stroke-miterlimit="10" x1="891.575" y1="0.164" x2="838.28" y2="622.164"/>
					<line fill="none" stroke="#E6E7E8" stroke-miterlimit="10" x1="895.397" y1="0.164" x2="842.102" y2="622.164"/>
					<line fill="none" stroke="#E6E7E8" stroke-miterlimit="10" x1="899.219" y1="0.164" x2="845.924" y2="622.164"/>
					<line fill="none" stroke="#E6E7E8" stroke-miterlimit="10" x1="903.042" y1="0.164" x2="849.747" y2="622.164"/>
					<line fill="none" stroke="#E6E7E8" stroke-miterlimit="10" x1="906.864" y1="0.164" x2="853.569" y2="622.164"/>
					<line fill="none" stroke="#E6E7E8" stroke-miterlimit="10" x1="910.685" y1="0.164" x2="857.391" y2="622.164"/>
					<line fill="none" stroke="#E6E7E8" stroke-miterlimit="10" x1="914.508" y1="0.164" x2="861.213" y2="622.164"/>
					<line fill="none" stroke="#E6E7E8" stroke-miterlimit="10" x1="918.33" y1="0.164" x2="865.036" y2="622.164"/>
					<line fill="none" stroke="#E6E7E8" stroke-miterlimit="10" x1="922.153" y1="0.164" x2="868.857" y2="622.164"/>
					<line fill="none" stroke="#E6E7E8" stroke-miterlimit="10" x1="925.974" y1="0.164" x2="872.68" y2="622.164"/>
					<line fill="none" stroke="#E6E7E8" stroke-miterlimit="10" x1="929.796" y1="0.164" x2="876.501" y2="622.164"/>
					<line fill="none" stroke="#E6E7E8" stroke-miterlimit="10" x1="933.619" y1="0.164" x2="880.324" y2="622.164"/>
					<line fill="none" stroke="#E6E7E8" stroke-miterlimit="10" x1="937.441" y1="0.164" x2="884.146" y2="622.164"/>
					<line fill="none" stroke="#E6E7E8" stroke-miterlimit="10" x1="941.263" y1="0.164" x2="887.967" y2="622.164"/>
					<line fill="none" stroke="#E6E7E8" stroke-miterlimit="10" x1="945.084" y1="0.164" x2="891.791" y2="622.164"/>
					<line fill="none" stroke="#E6E7E8" stroke-miterlimit="10" x1="948.907" y1="0.164" x2="895.612" y2="622.164"/>
					<line fill="none" stroke="#E6E7E8" stroke-miterlimit="10" x1="952.729" y1="0.164" x2="899.435" y2="622.164"/>
					<line fill="none" stroke="#E6E7E8" stroke-miterlimit="10" x1="956.551" y1="0.164" x2="903.256" y2="622.164"/>
					<line fill="none" stroke="#E6E7E8" stroke-miterlimit="10" x1="960.374" y1="0.164" x2="907.079" y2="622.164"/>
					<line fill="none" stroke="#E6E7E8" stroke-miterlimit="10" x1="964.196" y1="0.164" x2="910.901" y2="622.164"/>
					<line fill="none" stroke="#E6E7E8" stroke-miterlimit="10" x1="968.018" y1="0.164" x2="914.723" y2="622.164"/>
					<line fill="none" stroke="#E6E7E8" stroke-miterlimit="10" x1="971.84" y1="0.164" x2="918.545" y2="622.164"/>
					<line fill="none" stroke="#E6E7E8" stroke-miterlimit="10" x1="975.663" y1="0.164" x2="922.368" y2="622.164"/>
					<line fill="none" stroke="#E6E7E8" stroke-miterlimit="10" x1="979.485" y1="0.164" x2="926.19" y2="622.164"/>
					<line fill="none" stroke="#E6E7E8" stroke-miterlimit="10" x1="983.307" y1="0.164" x2="930.012" y2="622.164"/>
					<line fill="none" stroke="#E6E7E8" stroke-miterlimit="10" x1="987.128" y1="0.164" x2="933.834" y2="622.164"/>
					<line fill="none" stroke="#E6E7E8" stroke-miterlimit="10" x1="990.952" y1="0.164" x2="937.656" y2="622.164"/>
					<line fill="none" stroke="#E6E7E8" stroke-miterlimit="10" x1="994.773" y1="0.164" x2="941.479" y2="622.164"/>
					<line fill="none" stroke="#E6E7E8" stroke-miterlimit="10" x1="998.595" y1="0.164" x2="945.3" y2="622.164"/>
					<line fill="none" stroke="#E6E7E8" stroke-miterlimit="10" x1="1002.417" y1="0.164" x2="949.123" y2="622.164"/>
					<line fill="none" stroke="#E6E7E8" stroke-miterlimit="10" x1="1006.24" y1="0.164" x2="952.945" y2="622.164"/>
					<line fill="none" stroke="#E6E7E8" stroke-miterlimit="10" x1="1010.062" y1="0.164" x2="956.767" y2="622.164"/>
					<line fill="none" stroke="#E6E7E8" stroke-miterlimit="10" x1="1013.884" y1="0.164" x2="960.589" y2="622.164"/>
					<line fill="none" stroke="#E6E7E8" stroke-miterlimit="10" x1="1017.707" y1="0.164" x2="964.412" y2="622.164"/>
					<line fill="none" stroke="#E6E7E8" stroke-miterlimit="10" x1="1021.528" y1="0.164" x2="968.234" y2="622.164"/>
					<line fill="none" stroke="#E6E7E8" stroke-miterlimit="10" x1="1025.35" y1="0.164" x2="972.055" y2="622.164"/>
					<line fill="none" stroke="#E6E7E8" stroke-miterlimit="10" x1="1029.172" y1="0.164" x2="975.878" y2="622.164"/>
					<line fill="none" stroke="#E6E7E8" stroke-miterlimit="10" x1="1032.995" y1="0.164" x2="979.7" y2="622.164"/>
					<line fill="none" stroke="#E6E7E8" stroke-miterlimit="10" x1="1036.817" y1="0.164" x2="983.522" y2="622.164"/>
					<line fill="none" stroke="#E6E7E8" stroke-miterlimit="10" x1="1040.639" y1="0.164" x2="987.344" y2="622.164"/>
					<line fill="none" stroke="#E6E7E8" stroke-miterlimit="10" x1="1044.461" y1="0.164" x2="991.167" y2="622.164"/>
					<line fill="none" stroke="#E6E7E8" stroke-miterlimit="10" x1="1048.284" y1="0.164" x2="994.989" y2="622.164"/>
					<line fill="none" stroke="#E6E7E8" stroke-miterlimit="10" x1="1052.106" y1="0.164" x2="998.811" y2="622.164"/>
					<line fill="none" stroke="#E6E7E8" stroke-miterlimit="10" x1="1055.928" y1="0.164" x2="1002.633" y2="622.164"/>
					<line fill="none" stroke="#E6E7E8" stroke-miterlimit="10" x1="1059.75" y1="0.164" x2="1006.456" y2="622.164"/>
					<line fill="none" stroke="#E6E7E8" stroke-miterlimit="10" x1="1063.572" y1="0.164" x2="1010.278" y2="622.164"/>
					<line fill="none" stroke="#E6E7E8" stroke-miterlimit="10" x1="1067.394" y1="0.164" x2="1014.099" y2="622.164"/>
					<line fill="none" stroke="#E6E7E8" stroke-miterlimit="10" x1="1071.216" y1="0.164" x2="1017.921" y2="622.164"/>
					<line fill="none" stroke="#E6E7E8" stroke-miterlimit="10" x1="1075.039" y1="0.164" x2="1021.744" y2="622.164"/>
					<line fill="none" stroke="#E6E7E8" stroke-miterlimit="10" x1="1078.861" y1="0.164" x2="1025.566" y2="622.164"/>
					<line fill="none" stroke="#E6E7E8" stroke-miterlimit="10" x1="1082.683" y1="0.164" x2="1029.388" y2="622.164"/>
					<line fill="none" stroke="#E6E7E8" stroke-miterlimit="10" x1="1086.505" y1="0.164" x2="1033.21" y2="622.164"/>
					<line fill="none" stroke="#E6E7E8" stroke-miterlimit="10" x1="1090.327" y1="0.164" x2="1037.033" y2="622.164"/>
					<line fill="none" stroke="#E6E7E8" stroke-miterlimit="10" x1="1094.15" y1="0.164" x2="1040.855" y2="622.164"/>
					<line fill="none" stroke="#E6E7E8" stroke-miterlimit="10" x1="1097.971" y1="0.164" x2="1044.677" y2="622.164"/>
					<line fill="none" stroke="#E6E7E8" stroke-miterlimit="10" x1="1101.794" y1="0.164" x2="1048.499" y2="622.164"/>
					<line fill="none" stroke="#E6E7E8" stroke-miterlimit="10" x1="1105.616" y1="0.164" x2="1052.321" y2="622.164"/>
					<line fill="none" stroke="#E6E7E8" stroke-miterlimit="10" x1="1109.438" y1="0.164" x2="1056.143" y2="622.164"/>
					<line fill="none" stroke="#E6E7E8" stroke-miterlimit="10" x1="1113.26" y1="0.164" x2="1059.965" y2="622.164"/>
					<line fill="none" stroke="#E6E7E8" stroke-miterlimit="10" x1="1117.083" y1="0.164" x2="1063.788" y2="622.164"/>
					<line fill="none" stroke="#E6E7E8" stroke-miterlimit="10" x1="1120.905" y1="0.164" x2="1067.61" y2="622.164"/>
					<line fill="none" stroke="#E6E7E8" stroke-miterlimit="10" x1="1124.727" y1="0.164" x2="1071.432" y2="622.164"/>
					<line fill="none" stroke="#E6E7E8" stroke-miterlimit="10" x1="1128.549" y1="0.164" x2="1075.254" y2="622.164"/>
					<line fill="none" stroke="#E6E7E8" stroke-miterlimit="10" x1="1132.372" y1="0.164" x2="1079.077" y2="622.164"/>
					<line fill="none" stroke="#E6E7E8" stroke-miterlimit="10" x1="1136.193" y1="0.164" x2="1082.899" y2="622.164"/>
					<line fill="none" stroke="#E6E7E8" stroke-miterlimit="10" x1="1140.016" y1="0.164" x2="1086.72" y2="622.164"/>
					<line fill="none" stroke="#E6E7E8" stroke-miterlimit="10" x1="1143.837" y1="0.164" x2="1090.542" y2="622.164"/>
					<line fill="none" stroke="#E6E7E8" stroke-miterlimit="10" x1="1147.66" y1="0.164" x2="1094.365" y2="622.164"/>
					<line fill="none" stroke="#E6E7E8" stroke-miterlimit="10" x1="1151.482" y1="0.164" x2="1098.187" y2="622.164"/>
					<line fill="none" stroke="#E6E7E8" stroke-miterlimit="10" x1="1155.304" y1="0.164" x2="1102.009" y2="622.164"/>
					<line fill="none" stroke="#E6E7E8" stroke-miterlimit="10" x1="1159.126" y1="0.164" x2="1105.832" y2="622.164"/>
					<line fill="none" stroke="#E6E7E8" stroke-miterlimit="10" x1="1162.949" y1="0.164" x2="1109.654" y2="622.164"/>
					<line fill="none" stroke="#E6E7E8" stroke-miterlimit="10" x1="1166.77" y1="0.164" x2="1113.476" y2="622.164"/>
					<line fill="none" stroke="#E6E7E8" stroke-miterlimit="10" x1="1170.593" y1="0.164" x2="1117.298" y2="622.164"/>
					<line fill="none" stroke="#E6E7E8" stroke-miterlimit="10" x1="1174.415" y1="0.164" x2="1121.12" y2="622.164"/>
					<line fill="none" stroke="#E6E7E8" stroke-miterlimit="10" x1="1178.238" y1="0.164" x2="1124.942" y2="622.164"/>
					<line fill="none" stroke="#E6E7E8" stroke-miterlimit="10" x1="1182.059" y1="0.164" x2="1128.764" y2="622.164"/>
					<line fill="none" stroke="#E6E7E8" stroke-miterlimit="10" x1="1185.881" y1="0.164" x2="1132.586" y2="622.164"/>
					<line fill="none" stroke="#E6E7E8" stroke-miterlimit="10" x1="1189.704" y1="0.164" x2="1136.409" y2="622.164"/>
					<line fill="none" stroke="#E6E7E8" stroke-miterlimit="10" x1="1193.526" y1="0.164" x2="1140.231" y2="622.164"/>
					<line fill="none" stroke="#E6E7E8" stroke-miterlimit="10" x1="1197.348" y1="0.164" x2="1144.053" y2="622.164"/>
					<line fill="none" stroke="#E6E7E8" stroke-miterlimit="10" x1="1201.17" y1="0.164" x2="1147.875" y2="622.164"/>
					<line fill="none" stroke="#E6E7E8" stroke-miterlimit="10" x1="1204.992" y1="0.164" x2="1151.698" y2="622.164"/>
					<line fill="none" stroke="#E6E7E8" stroke-miterlimit="10" x1="1208.815" y1="0.164" x2="1155.519" y2="622.164"/>
					<line fill="none" stroke="#E6E7E8" stroke-miterlimit="10" x1="1212.636" y1="0.164" x2="1159.342" y2="622.164"/>
					<line fill="none" stroke="#E6E7E8" stroke-miterlimit="10" x1="1216.459" y1="0.164" x2="1163.164" y2="622.164"/>
					<line fill="none" stroke="#E6E7E8" stroke-miterlimit="10" x1="1220.281" y1="0.164" x2="1166.986" y2="622.164"/>
					<line fill="none" stroke="#E6E7E8" stroke-miterlimit="10" x1="1224.103" y1="0.164" x2="1170.808" y2="622.164"/>
					<line fill="none" stroke="#E6E7E8" stroke-miterlimit="10" x1="1227.925" y1="0.164" x2="1174.63" y2="622.164"/>
					<line fill="none" stroke="#E6E7E8" stroke-miterlimit="10" x1="1231.748" y1="0.164" x2="1178.453" y2="622.164"/>
					<line fill="none" stroke="#E6E7E8" stroke-miterlimit="10" x1="1235.57" y1="0.164" x2="1182.275" y2="622.164"/>
					<line fill="none" stroke="#E6E7E8" stroke-miterlimit="10" x1="1239.392" y1="0.164" x2="1186.097" y2="622.164"/>
					<line fill="none" stroke="#E6E7E8" stroke-miterlimit="10" x1="1243.214" y1="0.164" x2="1189.918" y2="622.164"/>
					<line fill="none" stroke="#E6E7E8" stroke-miterlimit="10" x1="1247.037" y1="0.164" x2="1193.742" y2="622.164"/>
					<line fill="none" stroke="#E6E7E8" stroke-miterlimit="10" x1="1250.858" y1="0.164" x2="1197.564" y2="622.164"/>
					<line fill="none" stroke="#E6E7E8" stroke-miterlimit="10" x1="1254.68" y1="0.164" x2="1201.385" y2="622.164"/>
					<line fill="none" stroke="#E6E7E8" stroke-miterlimit="10" x1="1258.503" y1="0.164" x2="1205.208" y2="622.164"/>
					<line fill="none" stroke="#E6E7E8" stroke-miterlimit="10" x1="1262.325" y1="0.164" x2="1209.03" y2="622.164"/>
					<line fill="none" stroke="#E6E7E8" stroke-miterlimit="10" x1="1266.147" y1="0.164" x2="1212.852" y2="622.164"/>
					<line fill="none" stroke="#E6E7E8" stroke-miterlimit="10" x1="1269.969" y1="0.164" x2="1216.674" y2="622.164"/>
					<line fill="none" stroke="#E6E7E8" stroke-miterlimit="10" x1="1273.791" y1="0.164" x2="1220.497" y2="622.164"/>
					<line fill="none" stroke="#E6E7E8" stroke-miterlimit="10" x1="1277.614" y1="0.164" x2="1224.319" y2="622.164"/>
					<line fill="none" stroke="#E6E7E8" stroke-miterlimit="10" x1="1281.436" y1="0.164" x2="1228.14" y2="622.164"/>
					<line fill="none" stroke="#E6E7E8" stroke-miterlimit="10" x1="1285.258" y1="0.164" x2="1231.962" y2="622.164"/>
					<line fill="none" stroke="#E6E7E8" stroke-miterlimit="10" x1="1289.08" y1="0.164" x2="1235.786" y2="622.164"/>
					<line fill="none" stroke="#E6E7E8" stroke-miterlimit="10" x1="1292.902" y1="0.164" x2="1239.608" y2="622.164"/>
					<line fill="none" stroke="#E6E7E8" stroke-miterlimit="10" x1="1296.725" y1="0.164" x2="1243.429" y2="622.164"/>
					<line fill="none" stroke="#E6E7E8" stroke-miterlimit="10" x1="1300.546" y1="0.164" x2="1247.251" y2="622.164"/>
					<line fill="none" stroke="#E6E7E8" stroke-miterlimit="10" x1="1304.369" y1="0.164" x2="1251.074" y2="622.164"/>
					<line fill="none" stroke="#E6E7E8" stroke-miterlimit="10" x1="1308.191" y1="0.164" x2="1254.896" y2="622.164"/>
					<line fill="none" stroke="#E6E7E8" stroke-miterlimit="10" x1="1312.012" y1="0.164" x2="1258.718" y2="622.164"/>
					<line fill="none" stroke="#E6E7E8" stroke-miterlimit="10" x1="1315.835" y1="0.164" x2="1262.541" y2="622.164"/>
					<line fill="none" stroke="#E6E7E8" stroke-miterlimit="10" x1="1319.658" y1="0.164" x2="1266.363" y2="622.164"/>
					<line fill="none" stroke="#E6E7E8" stroke-miterlimit="10" x1="1323.48" y1="0.164" x2="1270.184" y2="622.164"/>
					<line fill="none" stroke="#E6E7E8" stroke-miterlimit="10" x1="1327.301" y1="0.164" x2="1274.006" y2="622.164"/>
					<line fill="none" stroke="#E6E7E8" stroke-miterlimit="10" x1="1331.124" y1="0.164" x2="1277.829" y2="622.164"/>
					<line fill="none" stroke="#E6E7E8" stroke-miterlimit="10" x1="1334.947" y1="0.164" x2="1281.652" y2="622.164"/>
					<line fill="none" stroke="#E6E7E8" stroke-miterlimit="10" x1="1338.768" y1="0.164" x2="1285.473" y2="622.164"/>
					<line fill="none" stroke="#E6E7E8" stroke-miterlimit="10" x1="1342.59" y1="0.164" x2="1289.295" y2="622.164"/>
				</g>
			</g>
		</g>
	</g>
</g>
</svg>
