<?xml version="1.0" encoding="utf-8"?>
<!-- Generator: Adobe Illustrator 16.0.4, SVG Export Plug-In . SVG Version: 6.00 Build 0)  -->
<!DOCTYPE svg PUBLIC "-//W3C//DTD SVG 1.1//EN" "http://www.w3.org/Graphics/SVG/1.1/DTD/svg11.dtd">
<svg version="1.1" id="Layer_1" xmlns="http://www.w3.org/2000/svg" xmlns:xlink="http://www.w3.org/1999/xlink" x="0px" y="0px"
	 width="1275.591px" height="224.705px" viewBox="0 0 1275.591 224.705" enable-background="new 0 0 1275.591 224.705"
	 xml:space="preserve">
<g>
	<g>
		<g>
			<path fill="#FFFFFF" d="M620.494,127.729c-5.82,5.818-15.263,5.824-21.087-0.004c-5.821-5.823-5.824-15.264,0-21.087
				c3.008-3.006,6.975-4.461,10.915-4.361c0,0,0.418,25.463,32.553,3.071L620.423,127.8"/>
			<path fill="#FFFFFF" d="M620.494,127.729c-5.82,5.818-15.263,5.824-21.087-0.004c-5.821-5.823-5.824-15.264,0-21.087
				c3.008-3.006,6.975-4.461,10.915-4.361c0,0,0.418,25.463,32.553,3.071L620.423,127.8"/>
			<path fill="#FFFFFF" d="M649.039,54.619c5.821-5.824,15.265-5.82,21.09,0.004c5.825,5.822,5.825,15.265,0.002,21.087
				c-3.007,3.005-6.973,4.459-10.914,4.362c0,0-0.42-25.465-32.557-3.076l22.454-22.449"/>
			<path fill="#FFFFFF" d="M649.039,54.619c5.821-5.824,15.265-5.82,21.09,0.004c5.825,5.822,5.825,15.265,0.002,21.087
				c-3.007,3.005-6.973,4.459-10.914,4.362c0,0-0.42-25.465-32.557-3.076l22.454-22.449"/>
			<path fill="#FFFFFF" d="M599.995,75.458c-5.823-5.825-5.823-15.264,0-21.091c5.826-5.823,15.266-5.823,21.09,0
				c3.006,3.006,4.463,6.973,4.365,10.914c0,0-25.464,0.421-3.075,32.555L599.92,75.383"/>
			<path fill="#FFFFFF" d="M599.995,75.458c-5.823-5.825-5.823-15.264,0-21.091c5.826-5.823,15.266-5.823,21.09,0
				c3.006,3.006,4.463,6.973,4.365,10.914c0,0-25.464,0.421-3.075,32.555L599.92,75.383"/>
			<path fill="#FFFFFF" d="M670.197,106.685c5.825,5.823,5.824,15.262,0,21.084c-5.827,5.827-15.265,5.827-21.093,0.003
				c-3.006-3.006-4.459-6.973-4.36-10.912c0,0,25.465-0.421,3.074-32.554l22.452,22.451"/>
			<path fill="#FFFFFF" d="M670.197,106.685c5.825,5.823,5.824,15.262,0,21.084c-5.827,5.827-15.265,5.827-21.093,0.003
				c-3.006-3.006-4.459-6.973-4.36-10.912c0,0,25.465-0.421,3.074-32.554l22.452,22.451"/>
		</g>
	</g>
	<g>
		<g>
			<path fill="#FFFFFF" d="M523.454,183.627h-3.104l-0.737-3.259c-1.294,1.475-2.587,2.496-3.88,3.065
				c-1.293,0.567-2.781,0.854-4.462,0.854c-2.07,0-3.926-0.382-5.568-1.145c-1.644-0.763-3.034-1.805-4.171-3.124
				c-1.139-1.319-2.012-2.858-2.62-4.617S498,171.767,498,169.774c0-1.965,0.304-3.828,0.912-5.587
				c0.608-1.758,1.481-3.298,2.62-4.617c1.138-1.319,2.528-2.367,4.171-3.144c1.642-0.775,3.498-1.164,5.568-1.164
				c1.5,0,2.929,0.201,4.288,0.602c1.358,0.401,2.567,0.996,3.627,1.785c1.061,0.789,1.94,1.778,2.639,2.969
				c0.699,1.189,1.138,2.561,1.319,4.112h-4.734c-0.129-0.905-0.407-1.7-0.834-2.386s-0.964-1.262-1.61-1.727
				c-0.647-0.467-1.372-0.815-2.173-1.048c-0.803-0.233-1.644-0.35-2.522-0.35c-1.475,0-2.749,0.298-3.822,0.893
				c-1.074,0.596-1.947,1.391-2.619,2.387c-0.673,0.996-1.171,2.128-1.494,3.395c-0.324,1.269-0.485,2.562-0.485,3.88
				c0,1.319,0.161,2.613,0.485,3.881c0.323,1.268,0.821,2.399,1.494,3.395c0.672,0.997,1.545,1.792,2.619,2.387
				c1.073,0.596,2.348,0.893,3.822,0.893c1.242,0.025,2.34-0.137,3.298-0.485c0.956-0.349,1.765-0.854,2.424-1.514
				c0.66-0.659,1.158-1.467,1.494-2.425c0.336-0.957,0.517-2.017,0.543-3.182h-7.373v-3.687h11.796V183.627z"/>
		</g>
		<g>
			<path fill="#FFFFFF" d="M528.731,155.923h13.231c3.052,0,5.341,0.659,6.868,1.979s2.29,3.156,2.29,5.51
				c0,1.319-0.194,2.412-0.583,3.279c-0.388,0.867-0.84,1.564-1.357,2.095c-0.518,0.53-1.029,0.913-1.533,1.146
				c-0.504,0.232-0.874,0.388-1.106,0.465v0.077c0.414,0.054,0.86,0.182,1.338,0.389s0.924,0.537,1.339,0.989
				c0.414,0.453,0.757,1.041,1.028,1.766c0.272,0.725,0.407,1.63,0.407,2.717c0,1.629,0.123,3.11,0.369,4.441
				c0.246,1.334,0.627,2.284,1.145,2.853h-5.199c-0.363-0.595-0.577-1.254-0.641-1.979c-0.065-0.725-0.097-1.423-0.097-2.096
				c0-1.267-0.077-2.36-0.232-3.278c-0.156-0.918-0.44-1.682-0.854-2.289c-0.414-0.608-0.977-1.054-1.688-1.339
				c-0.711-0.284-1.624-0.427-2.735-0.427h-7.139v11.407h-4.851V155.923z M533.582,168.533h7.954c1.552,0,2.729-0.369,3.531-1.106
				c0.802-0.736,1.203-1.843,1.203-3.316c0-0.88-0.13-1.597-0.388-2.154c-0.259-0.556-0.615-0.989-1.067-1.299
				c-0.452-0.312-0.97-0.519-1.552-0.622c-0.582-0.103-1.184-0.154-1.805-0.154h-7.876V168.533z"/>
		</g>
		<g>
			<path fill="#FFFFFF" d="M554.961,155.923h4.851v16.141c0,0.932,0.045,1.877,0.135,2.833c0.091,0.958,0.35,1.817,0.777,2.581
				c0.427,0.763,1.073,1.391,1.94,1.882c0.866,0.491,2.088,0.737,3.667,0.737c1.578,0,2.8-0.246,3.667-0.737
				c0.866-0.491,1.513-1.119,1.94-1.882c0.427-0.764,0.685-1.623,0.776-2.581c0.091-0.956,0.136-1.901,0.136-2.833v-16.141h4.85
				v17.732c0,1.785-0.271,3.337-0.815,4.655c-0.543,1.32-1.313,2.427-2.309,3.318c-0.996,0.892-2.192,1.559-3.589,1.998
				c-1.396,0.44-2.949,0.66-4.656,0.66c-1.707,0-3.259-0.22-4.656-0.66c-1.397-0.439-2.594-1.106-3.589-1.998
				c-0.996-0.892-1.766-1.998-2.309-3.318c-0.543-1.318-0.815-2.87-0.815-4.655V155.923z"/>
		</g>
		<g>
			<path fill="#FFFFFF" d="M583.287,155.923h12.223c1.966,0,3.57,0.285,4.812,0.853c1.241,0.57,2.198,1.281,2.871,2.136
				c0.673,0.853,1.132,1.784,1.378,2.793c0.246,1.009,0.369,1.939,0.369,2.794c0,0.853-0.123,1.778-0.369,2.774
				c-0.246,0.996-0.705,1.92-1.378,2.774c-0.672,0.854-1.629,1.559-2.871,2.115c-1.242,0.556-2.846,0.833-4.812,0.833h-7.372v10.632
				h-4.851V155.923z M588.137,169.037h7.1c0.543,0,1.1-0.077,1.668-0.232c0.569-0.155,1.093-0.407,1.572-0.757
				c0.478-0.349,0.866-0.814,1.164-1.396s0.447-1.312,0.447-2.192c0-0.905-0.13-1.655-0.388-2.251
				c-0.259-0.594-0.608-1.066-1.047-1.415c-0.44-0.351-0.945-0.589-1.514-0.719c-0.569-0.129-1.177-0.193-1.824-0.193h-7.178
				V169.037z"/>
		</g>
		<g>
			<path fill="#FFFFFF" d="M619.411,155.263c2.069,0,3.925,0.389,5.568,1.164c1.643,0.776,3.033,1.824,4.171,3.144
				c1.138,1.319,2.011,2.859,2.619,4.617c0.608,1.759,0.912,3.622,0.912,5.587c0,1.992-0.304,3.868-0.912,5.627
				s-1.48,3.298-2.619,4.617c-1.139,1.319-2.528,2.361-4.171,3.124s-3.499,1.145-5.568,1.145c-2.07,0-3.926-0.382-5.568-1.145
				s-3.033-1.805-4.171-3.124s-2.011-2.858-2.619-4.617c-0.608-1.759-0.912-3.635-0.912-5.627c0-1.965,0.304-3.828,0.912-5.587
				c0.607-1.758,1.48-3.298,2.619-4.617s2.529-2.367,4.171-3.144C615.485,155.651,617.341,155.263,619.411,155.263z
				 M619.411,159.221c-1.475,0-2.749,0.298-3.822,0.893c-1.074,0.596-1.946,1.391-2.619,2.387s-1.17,2.128-1.494,3.395
				c-0.324,1.269-0.485,2.562-0.485,3.88c0,1.319,0.161,2.613,0.485,3.881c0.323,1.268,0.821,2.399,1.494,3.395
				c0.673,0.997,1.545,1.792,2.619,2.387c1.073,0.596,2.348,0.893,3.822,0.893s2.749-0.297,3.822-0.893
				c1.073-0.595,1.946-1.39,2.619-2.387c0.672-0.995,1.17-2.127,1.494-3.395c0.323-1.268,0.485-2.562,0.485-3.881
				c0-1.318-0.162-2.611-0.485-3.88c-0.324-1.267-0.821-2.398-1.494-3.395c-0.673-0.996-1.546-1.791-2.619-2.387
				C622.16,159.519,620.886,159.221,619.411,159.221z"/>
		</g>
		<g>
			<path fill="#FFFFFF" d="M660.453,177.961c-0.179,1.072-0.588,2.074-1.226,3.005c-0.638,0.933-1.557,1.71-2.757,2.336
				c-1.199,0.625-2.819,0.938-4.86,0.938c-1.148,0-2.258-0.16-3.33-0.479c-1.071-0.319-2.029-0.816-2.871-1.493
				c-0.842-0.676-1.52-1.544-2.028-2.603c-0.511-1.059-0.766-2.342-0.766-3.847v-2.374h5.435v1.226c0,0.663,0.051,1.276,0.153,1.837
				c0.103,0.562,0.281,1.04,0.537,1.436c0.255,0.396,0.605,0.707,1.053,0.938c0.444,0.229,1.026,0.345,1.741,0.345
				c0.791,0,1.403-0.141,1.838-0.421c0.432-0.281,0.745-0.645,0.937-1.091s0.307-0.931,0.345-1.455
				c0.039-0.522,0.058-1.026,0.058-1.512v-18.449h6.009v18.717C660.719,175.908,660.63,176.89,660.453,177.961z"/>
		</g>
	</g>
	<g>
		<g>
			<path fill="#FFFFFF" d="M660.453,177.961c-0.179,1.072-0.588,2.074-1.226,3.005c-0.638,0.933-1.557,1.71-2.757,2.336
				c-1.199,0.625-2.819,0.938-4.86,0.938c-1.148,0-2.258-0.16-3.33-0.479c-1.071-0.319-2.029-0.816-2.87-1.493
				c-0.843-0.676-1.521-1.544-2.029-2.603c-0.511-1.059-0.766-2.342-0.766-3.848v-2.373h5.435v1.226
				c0,0.663,0.051,1.276,0.153,1.837c0.103,0.562,0.281,1.04,0.537,1.436c0.255,0.396,0.605,0.707,1.053,0.938
				c0.444,0.229,1.025,0.345,1.74,0.345c0.792,0,1.404-0.141,1.839-0.421c0.433-0.281,0.745-0.645,0.937-1.091
				c0.191-0.445,0.307-0.931,0.344-1.455c0.04-0.522,0.059-1.025,0.059-1.512v-18.449h6.009v18.718
				C660.719,175.908,660.63,176.89,660.453,177.961z"/>
		</g>
	</g>
	<g>
		<g>
			<path fill="#FFFFFF" d="M664.547,164.393c0.613-1.748,1.494-3.273,2.641-4.575c1.149-1.301,2.56-2.321,4.229-3.062
				c1.672-0.74,3.554-1.11,5.647-1.11c2.117,0,4.006,0.37,5.665,1.11s3.062,1.761,4.211,3.062c1.147,1.302,2.028,2.827,2.641,4.575
				c0.612,1.747,0.919,3.643,0.919,5.684c0,1.99-0.307,3.847-0.919,5.569s-1.493,3.223-2.641,4.498
				c-1.148,1.276-2.552,2.277-4.211,3.005c-1.659,0.727-3.548,1.091-5.665,1.091c-2.094,0-3.976-0.364-5.647-1.091
				c-1.67-0.728-3.08-1.729-4.229-3.005c-1.146-1.275-2.027-2.775-2.641-4.498c-0.611-1.723-0.918-3.579-0.918-5.569
				C663.629,168.035,663.936,166.14,664.547,164.393z M670.042,173.426c0.268,1.085,0.694,2.061,1.282,2.928
				c0.586,0.868,1.352,1.563,2.296,2.086c0.943,0.523,2.093,0.785,3.445,0.785c1.351,0,2.5-0.262,3.445-0.785
				c0.944-0.522,1.709-1.218,2.296-2.086c0.587-0.867,1.015-1.843,1.282-2.928c0.269-1.084,0.402-2.201,0.402-3.35
				c0-1.199-0.134-2.36-0.402-3.483c-0.268-1.122-0.695-2.124-1.282-3.005c-0.587-0.88-1.352-1.582-2.296-2.105
				c-0.945-0.522-2.095-0.785-3.445-0.785c-1.353,0-2.502,0.263-3.445,0.785c-0.944,0.523-1.71,1.226-2.296,2.105
				c-0.588,0.881-1.015,1.883-1.282,3.005c-0.27,1.123-0.402,2.284-0.402,3.483C669.639,171.225,669.772,172.342,670.042,173.426z"
				/>
			<path fill="#FFFFFF" d="M707.075,156.297c1.302,0,2.488,0.114,3.56,0.344c1.072,0.229,1.99,0.607,2.756,1.129
				c0.766,0.523,1.358,1.219,1.78,2.087c0.421,0.867,0.631,1.939,0.631,3.215c0,1.378-0.312,2.526-0.937,3.445
				c-0.626,0.919-1.551,1.672-2.775,2.258c1.685,0.484,2.94,1.334,3.771,2.546c0.828,1.212,1.244,2.673,1.244,4.383
				c0,1.378-0.268,2.571-0.804,3.578c-0.536,1.009-1.258,1.832-2.163,2.47c-0.906,0.638-1.939,1.109-3.101,1.416
				c-1.162,0.307-2.354,0.459-3.579,0.459h-13.245v-27.329H707.075z M706.309,167.358c1.072,0,1.952-0.255,2.642-0.766
				c0.688-0.51,1.033-1.34,1.033-2.487c0-0.639-0.114-1.162-0.345-1.57c-0.229-0.407-0.535-0.728-0.919-0.957
				c-0.382-0.229-0.823-0.389-1.32-0.479c-0.497-0.089-1.014-0.134-1.55-0.134h-5.627v6.393H706.309z M706.654,178.956
				c0.586,0,1.148-0.057,1.685-0.172c0.535-0.115,1.007-0.306,1.416-0.574c0.407-0.268,0.732-0.631,0.976-1.091
				c0.243-0.459,0.364-1.046,0.364-1.761c0-1.403-0.396-2.404-1.187-3.005c-0.792-0.599-1.837-0.899-3.14-0.899h-6.545v7.502
				H706.654z"/>
			<path fill="#FFFFFF" d="M741.18,156.297v5.052h-14.432v5.856h13.244v4.67h-13.244v6.699h14.736v5.052H720.74v-27.329H741.18z"/>
			<path fill="#FFFFFF" d="M751.131,156.297l11.407,18.335h0.077v-18.335h5.626v27.329h-6.01l-11.368-18.296h-0.075v18.296h-5.628
				v-27.329H751.131z"/>
			<path fill="#FFFFFF" d="M779.152,156.297v27.329h-6.01v-27.329H779.152z"/>
		</g>
	</g>
	<g>
		<g>
			<path fill="#FFFFFF" d="M664.548,164.393c0.612-1.748,1.491-3.273,2.64-4.574c1.149-1.302,2.559-2.321,4.231-3.062
				c1.67-0.739,3.553-1.109,5.646-1.109c2.117,0,4.006,0.37,5.665,1.109c1.659,0.741,3.062,1.761,4.211,3.062
				c1.147,1.301,2.028,2.826,2.641,4.574c0.612,1.747,0.918,3.643,0.918,5.684c0,1.99-0.306,3.847-0.918,5.569
				s-1.493,3.223-2.641,4.498c-1.148,1.276-2.552,2.277-4.211,3.005c-1.659,0.727-3.548,1.091-5.665,1.091
				c-2.093,0-3.976-0.364-5.646-1.091c-1.673-0.728-3.082-1.729-4.231-3.005c-1.148-1.275-2.027-2.775-2.64-4.498
				s-0.919-3.579-0.919-5.569C663.629,168.035,663.936,166.14,664.548,164.393z M670.042,173.426
				c0.268,1.085,0.695,2.061,1.282,2.928c0.586,0.868,1.352,1.563,2.296,2.086c0.943,0.523,2.093,0.785,3.445,0.785
				s2.5-0.262,3.445-0.785c0.943-0.522,1.709-1.218,2.296-2.086c0.587-0.867,1.015-1.843,1.282-2.928
				c0.269-1.084,0.402-2.201,0.402-3.35c0-1.199-0.134-2.36-0.402-3.483c-0.268-1.122-0.695-2.124-1.282-3.005
				c-0.587-0.879-1.353-1.582-2.296-2.105c-0.945-0.522-2.093-0.785-3.445-0.785s-2.502,0.263-3.445,0.785
				c-0.944,0.523-1.71,1.227-2.296,2.105c-0.587,0.881-1.015,1.883-1.282,3.005c-0.27,1.123-0.402,2.284-0.402,3.483
				C669.639,171.225,669.772,172.342,670.042,173.426z"/>
			<path fill="#FFFFFF" d="M706.615,178.956c0.587,0,1.148-0.057,1.685-0.171c0.536-0.116,1.008-0.307,1.417-0.575
				c0.408-0.268,0.733-0.631,0.975-1.09c0.243-0.46,0.364-1.047,0.364-1.762c0-1.403-0.396-2.404-1.186-3.005
				c-0.793-0.599-1.838-0.899-3.14-0.899h-6.546v7.502H706.615z M707.036,156.297c1.303,0,2.488,0.114,3.56,0.345
				c1.073,0.229,1.992,0.606,2.758,1.128c0.765,0.523,1.358,1.22,1.778,2.087c0.422,0.867,0.633,1.939,0.633,3.215
				c0,1.378-0.313,2.526-0.938,3.445s-1.551,1.672-2.775,2.258c1.685,0.484,2.941,1.334,3.77,2.546
				c0.83,1.212,1.245,2.673,1.245,4.383c0,1.378-0.268,2.571-0.804,3.578c-0.535,1.009-1.258,1.832-2.162,2.47
				c-0.907,0.638-1.939,1.109-3.102,1.416c-1.161,0.307-2.354,0.459-3.579,0.459h-13.243v-27.329H707.036z M706.271,167.358
				c1.071,0,1.952-0.255,2.642-0.766c0.688-0.51,1.032-1.34,1.032-2.487c0-0.639-0.114-1.162-0.344-1.57
				c-0.23-0.407-0.537-0.728-0.919-0.957c-0.383-0.229-0.824-0.389-1.321-0.479c-0.496-0.089-1.014-0.134-1.55-0.134h-5.627v6.393
				H706.271z"/>
			<polygon fill="#FFFFFF" points="741.142,156.297 741.142,161.349 726.711,161.349 726.711,167.205 739.955,167.205 
				739.955,171.875 726.711,171.875 726.711,178.574 741.448,178.574 741.448,183.626 720.702,183.626 720.702,156.297 			"/>
			<polygon fill="#FFFFFF" points="751.054,156.297 762.462,174.632 762.539,174.632 762.539,156.297 768.165,156.297 
				768.165,183.626 762.156,183.626 750.787,165.33 750.71,165.33 750.71,183.626 745.083,183.626 745.083,156.297 			"/>
			<rect x="773.025" y="156.297" fill="#FFFFFF" width="6.011" height="27.329"/>
		</g>
	</g>
</g>
<g>
	<g>
		<defs>
			<rect id="SVGID_1_" width="1275.591" height="224.705"/>
		</defs>
		<clipPath id="SVGID_2_">
			<use xlink:href="#SVGID_1_"  overflow="visible"/>
		</clipPath>
		<rect y="-8.164" clip-path="url(#SVGID_2_)" fill="#282561" width="1275.591" height="232.869"/>
		<g clip-path="url(#SVGID_2_)">
			<line fill="none" stroke="#8F869D" stroke-miterlimit="10" x1="6" y1="-8" x2="-14" y2="229"/>
			<line fill="none" stroke="#8F869D" stroke-miterlimit="10" x1="10.269" y1="-8" x2="-9.731" y2="229"/>
			<line fill="none" stroke="#8F869D" stroke-miterlimit="10" x1="14.537" y1="-8" x2="-5.463" y2="229"/>
			<line fill="none" stroke="#8F869D" stroke-miterlimit="10" x1="18.805" y1="-8" x2="-1.195" y2="229"/>
			<line fill="none" stroke="#8F869D" stroke-miterlimit="10" x1="23.073" y1="-8" x2="3.073" y2="229"/>
			<line fill="none" stroke="#8F869D" stroke-miterlimit="10" x1="27.34" y1="-8" x2="7.34" y2="229"/>
			<line fill="none" stroke="#8F869D" stroke-miterlimit="10" x1="31.608" y1="-8" x2="11.608" y2="229"/>
			<line fill="none" stroke="#8F869D" stroke-miterlimit="10" x1="35.876" y1="-8" x2="15.876" y2="229"/>
			<line fill="none" stroke="#8F869D" stroke-miterlimit="10" x1="40.144" y1="-8" x2="20.144" y2="229"/>
			<line fill="none" stroke="#8F869D" stroke-miterlimit="10" x1="44.411" y1="-8" x2="24.411" y2="229"/>
			<line fill="none" stroke="#8F869D" stroke-miterlimit="10" x1="48.679" y1="-8" x2="28.679" y2="229"/>
			<line fill="none" stroke="#8F869D" stroke-miterlimit="10" x1="52.947" y1="-8" x2="32.947" y2="229"/>
			<line fill="none" stroke="#8F869D" stroke-miterlimit="10" x1="57.215" y1="-8" x2="37.215" y2="229"/>
			<line fill="none" stroke="#8F869D" stroke-miterlimit="10" x1="61.482" y1="-8" x2="41.482" y2="229"/>
			<line fill="none" stroke="#8F869D" stroke-miterlimit="10" x1="65.75" y1="-8" x2="45.75" y2="229"/>
			<line fill="none" stroke="#8F869D" stroke-miterlimit="10" x1="70.018" y1="-8" x2="50.018" y2="229"/>
			<line fill="none" stroke="#8F869D" stroke-miterlimit="10" x1="74.285" y1="-8" x2="54.285" y2="229"/>
			<line fill="none" stroke="#8F869D" stroke-miterlimit="10" x1="78.553" y1="-8" x2="58.553" y2="229"/>
			<line fill="none" stroke="#8F869D" stroke-miterlimit="10" x1="82.821" y1="-8" x2="62.821" y2="229"/>
			<line fill="none" stroke="#8F869D" stroke-miterlimit="10" x1="87.089" y1="-8" x2="67.089" y2="229"/>
			<line fill="none" stroke="#8F869D" stroke-miterlimit="10" x1="91.356" y1="-8" x2="71.357" y2="229"/>
			<line fill="none" stroke="#8F869D" stroke-miterlimit="10" x1="95.624" y1="-8" x2="75.625" y2="229"/>
			<line fill="none" stroke="#8F869D" stroke-miterlimit="10" x1="99.892" y1="-8" x2="79.892" y2="229"/>
			<line fill="none" stroke="#8F869D" stroke-miterlimit="10" x1="104.16" y1="-8" x2="84.16" y2="229"/>
			<line fill="none" stroke="#8F869D" stroke-miterlimit="10" x1="108.427" y1="-8" x2="88.427" y2="229"/>
			<line fill="none" stroke="#8F869D" stroke-miterlimit="10" x1="112.695" y1="-8" x2="92.695" y2="229"/>
			<line fill="none" stroke="#8F869D" stroke-miterlimit="10" x1="116.963" y1="-8" x2="96.963" y2="229"/>
			<line fill="none" stroke="#8F869D" stroke-miterlimit="10" x1="121.231" y1="-8" x2="101.231" y2="229"/>
			<line fill="none" stroke="#8F869D" stroke-miterlimit="10" x1="125.499" y1="-8" x2="105.499" y2="229"/>
			<line fill="none" stroke="#8F869D" stroke-miterlimit="10" x1="129.766" y1="-8" x2="109.766" y2="229"/>
			<line fill="none" stroke="#8F869D" stroke-miterlimit="10" x1="134.034" y1="-8" x2="114.034" y2="229"/>
			<line fill="none" stroke="#8F869D" stroke-miterlimit="10" x1="138.302" y1="-8" x2="118.302" y2="229"/>
			<line fill="none" stroke="#8F869D" stroke-miterlimit="10" x1="142.569" y1="-8" x2="122.569" y2="229"/>
			<line fill="none" stroke="#8F869D" stroke-miterlimit="10" x1="146.837" y1="-8" x2="126.837" y2="229"/>
			<line fill="none" stroke="#8F869D" stroke-miterlimit="10" x1="151.105" y1="-8" x2="131.105" y2="229"/>
			<line fill="none" stroke="#8F869D" stroke-miterlimit="10" x1="155.373" y1="-8" x2="135.373" y2="229"/>
			<line fill="none" stroke="#8F869D" stroke-miterlimit="10" x1="159.641" y1="-8" x2="139.641" y2="229"/>
			<line fill="none" stroke="#8F869D" stroke-miterlimit="10" x1="163.908" y1="-8" x2="143.908" y2="229"/>
			<line fill="none" stroke="#8F869D" stroke-miterlimit="10" x1="168.176" y1="-8" x2="148.176" y2="229"/>
			<line fill="none" stroke="#8F869D" stroke-miterlimit="10" x1="172.444" y1="-8" x2="152.444" y2="229"/>
			<line fill="none" stroke="#8F869D" stroke-miterlimit="10" x1="176.711" y1="-8" x2="156.711" y2="229"/>
			<line fill="none" stroke="#8F869D" stroke-miterlimit="10" x1="180.979" y1="-8" x2="160.979" y2="229"/>
			<line fill="none" stroke="#8F869D" stroke-miterlimit="10" x1="185.247" y1="-8" x2="165.247" y2="229"/>
			<line fill="none" stroke="#8F869D" stroke-miterlimit="10" x1="189.515" y1="-8" x2="169.515" y2="229"/>
			<line fill="none" stroke="#8F869D" stroke-miterlimit="10" x1="193.783" y1="-8" x2="173.783" y2="229"/>
			<line fill="none" stroke="#8F869D" stroke-miterlimit="10" x1="198.05" y1="-8" x2="178.05" y2="229"/>
			<line fill="none" stroke="#8F869D" stroke-miterlimit="10" x1="202.318" y1="-8" x2="182.318" y2="229"/>
			<line fill="none" stroke="#8F869D" stroke-miterlimit="10" x1="206.586" y1="-8" x2="186.586" y2="229"/>
			<line fill="none" stroke="#8F869D" stroke-miterlimit="10" x1="210.853" y1="-8" x2="190.853" y2="229"/>
			<line fill="none" stroke="#8F869D" stroke-miterlimit="10" x1="215.121" y1="-8" x2="195.121" y2="229"/>
			<line fill="none" stroke="#8F869D" stroke-miterlimit="10" x1="219.389" y1="-8" x2="199.389" y2="229"/>
			<line fill="none" stroke="#8F869D" stroke-miterlimit="10" x1="223.657" y1="-8" x2="203.657" y2="229"/>
			<line fill="none" stroke="#8F869D" stroke-miterlimit="10" x1="227.924" y1="-8" x2="207.924" y2="229"/>
			<line fill="none" stroke="#8F869D" stroke-miterlimit="10" x1="232.192" y1="-8" x2="212.192" y2="229"/>
			<line fill="none" stroke="#8F869D" stroke-miterlimit="10" x1="236.459" y1="-8" x2="216.46" y2="229"/>
			<line fill="none" stroke="#8F869D" stroke-miterlimit="10" x1="240.728" y1="-8" x2="220.728" y2="229"/>
			<line fill="none" stroke="#8F869D" stroke-miterlimit="10" x1="244.996" y1="-8" x2="224.995" y2="229"/>
			<line fill="none" stroke="#8F869D" stroke-miterlimit="10" x1="249.263" y1="-8" x2="229.263" y2="229"/>
			<line fill="none" stroke="#8F869D" stroke-miterlimit="10" x1="253.531" y1="-8" x2="233.531" y2="229"/>
			<line fill="none" stroke="#8F869D" stroke-miterlimit="10" x1="257.798" y1="-8" x2="237.798" y2="229"/>
			<line fill="none" stroke="#8F869D" stroke-miterlimit="10" x1="262.066" y1="-8" x2="242.067" y2="229"/>
			<line fill="none" stroke="#8F869D" stroke-miterlimit="10" x1="266.334" y1="-8" x2="246.334" y2="229"/>
			<line fill="none" stroke="#8F869D" stroke-miterlimit="10" x1="270.602" y1="-8" x2="250.602" y2="229"/>
			<line fill="none" stroke="#8F869D" stroke-miterlimit="10" x1="274.87" y1="-8" x2="254.87" y2="229"/>
			<line fill="none" stroke="#8F869D" stroke-miterlimit="10" x1="279.137" y1="-8" x2="259.137" y2="229"/>
			<line fill="none" stroke="#8F869D" stroke-miterlimit="10" x1="283.405" y1="-8" x2="263.405" y2="229"/>
			<line fill="none" stroke="#8F869D" stroke-miterlimit="10" x1="287.673" y1="-8" x2="267.672" y2="229"/>
			<line fill="none" stroke="#8F869D" stroke-miterlimit="10" x1="291.941" y1="-8" x2="271.941" y2="229"/>
			<line fill="none" stroke="#8F869D" stroke-miterlimit="10" x1="296.208" y1="-8" x2="276.208" y2="229"/>
			<line fill="none" stroke="#8F869D" stroke-miterlimit="10" x1="300.476" y1="-8" x2="280.476" y2="229"/>
			<line fill="none" stroke="#8F869D" stroke-miterlimit="10" x1="304.744" y1="-8" x2="284.744" y2="229"/>
			<line fill="none" stroke="#8F869D" stroke-miterlimit="10" x1="309.011" y1="-8" x2="289.012" y2="229"/>
			<line fill="none" stroke="#8F869D" stroke-miterlimit="10" x1="313.279" y1="-8" x2="293.279" y2="229"/>
			<line fill="none" stroke="#8F869D" stroke-miterlimit="10" x1="317.546" y1="-8" x2="297.546" y2="229"/>
			<line fill="none" stroke="#8F869D" stroke-miterlimit="10" x1="321.815" y1="-8" x2="301.815" y2="229"/>
			<line fill="none" stroke="#8F869D" stroke-miterlimit="10" x1="326.083" y1="-8" x2="306.083" y2="229"/>
			<line fill="none" stroke="#8F869D" stroke-miterlimit="10" x1="330.35" y1="-8" x2="310.35" y2="229"/>
			<line fill="none" stroke="#8F869D" stroke-miterlimit="10" x1="334.618" y1="-8" x2="314.618" y2="229"/>
			<line fill="none" stroke="#8F869D" stroke-miterlimit="10" x1="338.886" y1="-8" x2="318.885" y2="229"/>
			<line fill="none" stroke="#8F869D" stroke-miterlimit="10" x1="343.153" y1="-8" x2="323.154" y2="229"/>
			<line fill="none" stroke="#8F869D" stroke-miterlimit="10" x1="347.421" y1="-8" x2="327.421" y2="229.001"/>
			<line fill="none" stroke="#8F869D" stroke-miterlimit="10" x1="351.689" y1="-8" x2="331.689" y2="229"/>
			<line fill="none" stroke="#8F869D" stroke-miterlimit="10" x1="355.957" y1="-8" x2="335.957" y2="229"/>
			<line fill="none" stroke="#8F869D" stroke-miterlimit="10" x1="360.225" y1="-8" x2="340.225" y2="229"/>
			<line fill="none" stroke="#8F869D" stroke-miterlimit="10" x1="364.493" y1="-8" x2="344.493" y2="229.001"/>
			<line fill="none" stroke="#8F869D" stroke-miterlimit="10" x1="368.76" y1="-8" x2="348.76" y2="229"/>
			<line fill="none" stroke="#8F869D" stroke-miterlimit="10" x1="373.028" y1="-8" x2="353.028" y2="229"/>
			<line fill="none" stroke="#8F869D" stroke-miterlimit="10" x1="377.296" y1="-8" x2="357.296" y2="229"/>
			<line fill="none" stroke="#8F869D" stroke-miterlimit="10" x1="381.563" y1="-8" x2="361.563" y2="229.001"/>
			<line fill="none" stroke="#8F869D" stroke-miterlimit="10" x1="385.832" y1="-8" x2="365.831" y2="229"/>
			<line fill="none" stroke="#8F869D" stroke-miterlimit="10" x1="390.099" y1="-8" x2="370.099" y2="229"/>
			<line fill="none" stroke="#8F869D" stroke-miterlimit="10" x1="394.367" y1="-8" x2="374.367" y2="229"/>
			<line fill="none" stroke="#8F869D" stroke-miterlimit="10" x1="398.635" y1="-8" x2="378.634" y2="229.001"/>
			<line fill="none" stroke="#8F869D" stroke-miterlimit="10" x1="402.902" y1="-8" x2="382.902" y2="229"/>
			<line fill="none" stroke="#8F869D" stroke-miterlimit="10" x1="407.169" y1="-8" x2="387.17" y2="229"/>
			<line fill="none" stroke="#8F869D" stroke-miterlimit="10" x1="411.438" y1="-8" x2="391.438" y2="229"/>
			<line fill="none" stroke="#8F869D" stroke-miterlimit="10" x1="415.706" y1="-8" x2="395.706" y2="229"/>
			<line fill="none" stroke="#8F869D" stroke-miterlimit="10" x1="419.973" y1="-8" x2="399.973" y2="229"/>
			<line fill="none" stroke="#8F869D" stroke-miterlimit="10" x1="424.241" y1="-8" x2="404.241" y2="229"/>
			<line fill="none" stroke="#8F869D" stroke-miterlimit="10" x1="428.509" y1="-8" x2="408.508" y2="229"/>
			<line fill="none" stroke="#8F869D" stroke-miterlimit="10" x1="432.777" y1="-8" x2="412.777" y2="229"/>
			<line fill="none" stroke="#8F869D" stroke-miterlimit="10" x1="437.044" y1="-8" x2="417.044" y2="229"/>
			<line fill="none" stroke="#8F869D" stroke-miterlimit="10" x1="441.312" y1="-8" x2="421.312" y2="229"/>
			<line fill="none" stroke="#8F869D" stroke-miterlimit="10" x1="445.58" y1="-8" x2="425.58" y2="229"/>
			<line fill="none" stroke="#8F869D" stroke-miterlimit="10" x1="449.848" y1="-8" x2="429.848" y2="229"/>
			<line fill="none" stroke="#8F869D" stroke-miterlimit="10" x1="454.115" y1="-8" x2="434.116" y2="229"/>
			<line fill="none" stroke="#8F869D" stroke-miterlimit="10" x1="458.383" y1="-8" x2="438.383" y2="229"/>
			<line fill="none" stroke="#8F869D" stroke-miterlimit="10" x1="462.651" y1="-8" x2="442.651" y2="229"/>
			<line fill="none" stroke="#8F869D" stroke-miterlimit="10" x1="466.918" y1="-8" x2="446.919" y2="229"/>
			<line fill="none" stroke="#8F869D" stroke-miterlimit="10" x1="471.186" y1="-8" x2="451.187" y2="229"/>
			<line fill="none" stroke="#8F869D" stroke-miterlimit="10" x1="475.454" y1="-8" x2="455.454" y2="229"/>
			<line fill="none" stroke="#8F869D" stroke-miterlimit="10" x1="479.722" y1="-8" x2="459.722" y2="229"/>
			<line fill="none" stroke="#8F869D" stroke-miterlimit="10" x1="483.99" y1="-8" x2="463.99" y2="229"/>
			<line fill="none" stroke="#8F869D" stroke-miterlimit="10" x1="488.257" y1="-8" x2="468.257" y2="229"/>
			<line fill="none" stroke="#8F869D" stroke-miterlimit="10" x1="492.525" y1="-8" x2="472.525" y2="229"/>
			<line fill="none" stroke="#8F869D" stroke-miterlimit="10" x1="496.793" y1="-8" x2="476.793" y2="229"/>
			<line fill="none" stroke="#8F869D" stroke-miterlimit="10" x1="501.061" y1="-8" x2="481.061" y2="229"/>
			<line fill="none" stroke="#8F869D" stroke-miterlimit="10" x1="505.329" y1="-8" x2="485.329" y2="229"/>
			<line fill="none" stroke="#8F869D" stroke-miterlimit="10" x1="509.596" y1="-8" x2="489.596" y2="229"/>
			<line fill="none" stroke="#8F869D" stroke-miterlimit="10" x1="513.864" y1="-8" x2="493.864" y2="229"/>
			<line fill="none" stroke="#8F869D" stroke-miterlimit="10" x1="518.132" y1="-8" x2="498.132" y2="229"/>
			<line fill="none" stroke="#8F869D" stroke-miterlimit="10" x1="522.4" y1="-8" x2="502.4" y2="229"/>
			<line fill="none" stroke="#8F869D" stroke-miterlimit="10" x1="526.667" y1="-8" x2="506.667" y2="229"/>
			<line fill="none" stroke="#8F869D" stroke-miterlimit="10" x1="530.935" y1="-8" x2="510.935" y2="229"/>
			<line fill="none" stroke="#8F869D" stroke-miterlimit="10" x1="535.203" y1="-8" x2="515.203" y2="229"/>
			<line fill="none" stroke="#8F869D" stroke-miterlimit="10" x1="539.471" y1="-8" x2="519.471" y2="229"/>
			<line fill="none" stroke="#8F869D" stroke-miterlimit="10" x1="543.738" y1="-8" x2="523.738" y2="228.999"/>
			<line fill="none" stroke="#8F869D" stroke-miterlimit="10" x1="548.006" y1="-8" x2="528.006" y2="229"/>
			<line fill="none" stroke="#8F869D" stroke-miterlimit="10" x1="552.274" y1="-8" x2="532.274" y2="229"/>
			<line fill="none" stroke="#8F869D" stroke-miterlimit="10" x1="556.542" y1="-8" x2="536.542" y2="229"/>
			<line fill="none" stroke="#8F869D" stroke-miterlimit="10" x1="560.809" y1="-8" x2="540.809" y2="228.999"/>
			<line fill="none" stroke="#8F869D" stroke-miterlimit="10" x1="565.078" y1="-8" x2="545.077" y2="229"/>
			<line fill="none" stroke="#8F869D" stroke-miterlimit="10" x1="569.345" y1="-8" x2="549.345" y2="229"/>
			<line fill="none" stroke="#8F869D" stroke-miterlimit="10" x1="573.613" y1="-8" x2="553.613" y2="229"/>
			<line fill="none" stroke="#8F869D" stroke-miterlimit="10" x1="577.88" y1="-8" x2="557.88" y2="228.999"/>
			<line fill="none" stroke="#8F869D" stroke-miterlimit="10" x1="582.148" y1="-8" x2="562.148" y2="229"/>
			<line fill="none" stroke="#8F869D" stroke-miterlimit="10" x1="586.417" y1="-8" x2="566.417" y2="229"/>
			<line fill="none" stroke="#8F869D" stroke-miterlimit="10" x1="590.684" y1="-8" x2="570.684" y2="229"/>
			<line fill="none" stroke="#8F869D" stroke-miterlimit="10" x1="594.952" y1="-8" x2="574.952" y2="228.999"/>
			<line fill="none" stroke="#8F869D" stroke-miterlimit="10" x1="599.219" y1="-8" x2="579.219" y2="229"/>
			<line fill="none" stroke="#8F869D" stroke-miterlimit="10" x1="603.488" y1="-8" x2="583.487" y2="229"/>
			<line fill="none" stroke="#8F869D" stroke-miterlimit="10" x1="607.755" y1="-8" x2="587.754" y2="229"/>
			<line fill="none" stroke="#8F869D" stroke-miterlimit="10" x1="612.022" y1="-8" x2="592.023" y2="229"/>
			<line fill="none" stroke="#8F869D" stroke-miterlimit="10" x1="616.291" y1="-8" x2="596.291" y2="229"/>
			<line fill="none" stroke="#8F869D" stroke-miterlimit="10" x1="620.558" y1="-8" x2="600.558" y2="229.001"/>
			<line fill="none" stroke="#8F869D" stroke-miterlimit="10" x1="624.826" y1="-8" x2="604.826" y2="229"/>
			<line fill="none" stroke="#8F869D" stroke-miterlimit="10" x1="629.093" y1="-8" x2="609.093" y2="229"/>
			<line fill="none" stroke="#8F869D" stroke-miterlimit="10" x1="633.361" y1="-8" x2="613.361" y2="229"/>
			<line fill="none" stroke="#8F869D" stroke-miterlimit="10" x1="637.629" y1="-8" x2="617.629" y2="229.001"/>
			<line fill="none" stroke="#8F869D" stroke-miterlimit="10" x1="641.897" y1="-8" x2="621.897" y2="229"/>
			<line fill="none" stroke="#8F869D" stroke-miterlimit="10" x1="646.165" y1="-8" x2="626.165" y2="228.999"/>
			<line fill="none" stroke="#8F869D" stroke-miterlimit="10" x1="650.433" y1="-8" x2="630.433" y2="229"/>
			<line fill="none" stroke="#8F869D" stroke-miterlimit="10" x1="654.701" y1="-8" x2="634.7" y2="229"/>
			<line fill="none" stroke="#8F869D" stroke-miterlimit="10" x1="658.968" y1="-8" x2="638.968" y2="229"/>
			<line fill="none" stroke="#8F869D" stroke-miterlimit="10" x1="663.236" y1="-8" x2="643.236" y2="229"/>
			<line fill="none" stroke="#8F869D" stroke-miterlimit="10" x1="667.503" y1="-8" x2="647.503" y2="229"/>
			<line fill="none" stroke="#8F869D" stroke-miterlimit="10" x1="671.771" y1="-8" x2="651.771" y2="229"/>
			<line fill="none" stroke="#8F869D" stroke-miterlimit="10" x1="676.039" y1="-8" x2="656.039" y2="229"/>
			<line fill="none" stroke="#8F869D" stroke-miterlimit="10" x1="680.306" y1="-8" x2="660.306" y2="229"/>
			<line fill="none" stroke="#8F869D" stroke-miterlimit="10" x1="684.574" y1="-8" x2="664.575" y2="229"/>
			<line fill="none" stroke="#8F869D" stroke-miterlimit="10" x1="688.842" y1="-8" x2="668.842" y2="229"/>
			<line fill="none" stroke="#8F869D" stroke-miterlimit="10" x1="693.11" y1="-8" x2="673.11" y2="229"/>
			<line fill="none" stroke="#8F869D" stroke-miterlimit="10" x1="697.377" y1="-8" x2="677.377" y2="229"/>
			<line fill="none" stroke="#8F869D" stroke-miterlimit="10" x1="701.645" y1="-8" x2="681.645" y2="229"/>
			<line fill="none" stroke="#8F869D" stroke-miterlimit="10" x1="705.914" y1="-8" x2="685.914" y2="229"/>
			<line fill="none" stroke="#8F869D" stroke-miterlimit="10" x1="710.18" y1="-8" x2="690.181" y2="229"/>
			<line fill="none" stroke="#8F869D" stroke-miterlimit="10" x1="714.449" y1="-8" x2="694.449" y2="229"/>
			<line fill="none" stroke="#8F869D" stroke-miterlimit="10" x1="718.716" y1="-8" x2="698.716" y2="229"/>
			<line fill="none" stroke="#8F869D" stroke-miterlimit="10" x1="722.984" y1="-8" x2="702.984" y2="229"/>
			<line fill="none" stroke="#8F869D" stroke-miterlimit="10" x1="727.251" y1="-8" x2="707.251" y2="229"/>
			<line fill="none" stroke="#8F869D" stroke-miterlimit="10" x1="731.519" y1="-8" x2="711.519" y2="229"/>
			<line fill="none" stroke="#8F869D" stroke-miterlimit="10" x1="735.787" y1="-8" x2="715.787" y2="229"/>
			<line fill="none" stroke="#8F869D" stroke-miterlimit="10" x1="740.054" y1="-8" x2="720.054" y2="229"/>
			<line fill="none" stroke="#8F869D" stroke-miterlimit="10" x1="744.323" y1="-8" x2="724.323" y2="229"/>
			<line fill="none" stroke="#8F869D" stroke-miterlimit="10" x1="748.59" y1="-8" x2="728.59" y2="229"/>
			<line fill="none" stroke="#8F869D" stroke-miterlimit="10" x1="752.858" y1="-8" x2="732.858" y2="229"/>
			<line fill="none" stroke="#8F869D" stroke-miterlimit="10" x1="757.125" y1="-8" x2="737.125" y2="229"/>
			<line fill="none" stroke="#8F869D" stroke-miterlimit="10" x1="761.394" y1="-8" x2="741.393" y2="229"/>
			<line fill="none" stroke="#8F869D" stroke-miterlimit="10" x1="765.661" y1="-8" x2="745.662" y2="229"/>
			<line fill="none" stroke="#8F869D" stroke-miterlimit="10" x1="769.929" y1="-8" x2="749.929" y2="229"/>
			<line fill="none" stroke="#8F869D" stroke-miterlimit="10" x1="774.197" y1="-8" x2="754.197" y2="229"/>
			<line fill="none" stroke="#8F869D" stroke-miterlimit="10" x1="778.464" y1="-8" x2="758.464" y2="229"/>
			<line fill="none" stroke="#8F869D" stroke-miterlimit="10" x1="782.732" y1="-8" x2="762.732" y2="229"/>
			<line fill="none" stroke="#8F869D" stroke-miterlimit="10" x1="787" y1="-8" x2="767" y2="229"/>
			<line fill="none" stroke="#8F869D" stroke-miterlimit="10" x1="791.267" y1="-8" x2="771.267" y2="229"/>
			<line fill="none" stroke="#8F869D" stroke-miterlimit="10" x1="795.535" y1="-8" x2="775.535" y2="229"/>
			<line fill="none" stroke="#8F869D" stroke-miterlimit="10" x1="799.803" y1="-8" x2="779.803" y2="229"/>
			<line fill="none" stroke="#8F869D" stroke-miterlimit="10" x1="804.07" y1="-8" x2="784.07" y2="229"/>
			<line fill="none" stroke="#8F869D" stroke-miterlimit="10" x1="808.338" y1="-8" x2="788.338" y2="229"/>
			<line fill="none" stroke="#8F869D" stroke-miterlimit="10" x1="812.606" y1="-8" x2="792.606" y2="229"/>
			<line fill="none" stroke="#8F869D" stroke-miterlimit="10" x1="816.874" y1="-8" x2="796.874" y2="229"/>
			<line fill="none" stroke="#8F869D" stroke-miterlimit="10" x1="821.141" y1="-8" x2="801.142" y2="229"/>
			<line fill="none" stroke="#8F869D" stroke-miterlimit="10" x1="825.41" y1="-8" x2="805.409" y2="229"/>
			<line fill="none" stroke="#8F869D" stroke-miterlimit="10" x1="829.677" y1="-8" x2="809.677" y2="229"/>
			<line fill="none" stroke="#8F869D" stroke-miterlimit="10" x1="833.945" y1="-8" x2="813.945" y2="229"/>
			<line fill="none" stroke="#8F869D" stroke-miterlimit="10" x1="838.212" y1="-8" x2="818.212" y2="229"/>
			<line fill="none" stroke="#8F869D" stroke-miterlimit="10" x1="842.48" y1="-8" x2="822.48" y2="229"/>
			<line fill="none" stroke="#8F869D" stroke-miterlimit="10" x1="846.748" y1="-8" x2="826.748" y2="229"/>
			<line fill="none" stroke="#8F869D" stroke-miterlimit="10" x1="851.015" y1="-8" x2="831.015" y2="229"/>
			<line fill="none" stroke="#8F869D" stroke-miterlimit="10" x1="855.284" y1="-8" x2="835.284" y2="229"/>
			<line fill="none" stroke="#8F869D" stroke-miterlimit="10" x1="859.551" y1="-8" x2="839.551" y2="229"/>
			<line fill="none" stroke="#8F869D" stroke-miterlimit="10" x1="863.819" y1="-8" x2="843.819" y2="229"/>
			<line fill="none" stroke="#8F869D" stroke-miterlimit="10" x1="868.086" y1="-8" x2="848.086" y2="229"/>
			<line fill="none" stroke="#8F869D" stroke-miterlimit="10" x1="872.354" y1="-8" x2="852.354" y2="229"/>
			<line fill="none" stroke="#8F869D" stroke-miterlimit="10" x1="876.622" y1="-8" x2="856.623" y2="229"/>
			<line fill="none" stroke="#8F869D" stroke-miterlimit="10" x1="880.89" y1="-8" x2="860.89" y2="229"/>
			<line fill="none" stroke="#8F869D" stroke-miterlimit="10" x1="885.158" y1="-8" x2="865.158" y2="229"/>
			<line fill="none" stroke="#8F869D" stroke-miterlimit="10" x1="889.425" y1="-8" x2="869.425" y2="229"/>
			<line fill="none" stroke="#8F869D" stroke-miterlimit="10" x1="893.693" y1="-8" x2="873.693" y2="229"/>
			<line fill="none" stroke="#8F869D" stroke-miterlimit="10" x1="897.96" y1="-8" x2="877.96" y2="229"/>
			<line fill="none" stroke="#8F869D" stroke-miterlimit="10" x1="902.228" y1="-8" x2="882.228" y2="229"/>
			<line fill="none" stroke="#8F869D" stroke-miterlimit="10" x1="906.496" y1="-8" x2="886.496" y2="229"/>
			<line fill="none" stroke="#8F869D" stroke-miterlimit="10" x1="910.763" y1="-8" x2="890.763" y2="229"/>
			<line fill="none" stroke="#8F869D" stroke-miterlimit="10" x1="915.032" y1="-8" x2="895.032" y2="229"/>
			<line fill="none" stroke="#8F869D" stroke-miterlimit="10" x1="919.299" y1="-8" x2="899.299" y2="229"/>
			<line fill="none" stroke="#8F869D" stroke-miterlimit="10" x1="923.567" y1="-8" x2="903.567" y2="229"/>
			<line fill="none" stroke="#8F869D" stroke-miterlimit="10" x1="927.834" y1="-8" x2="907.834" y2="229"/>
			<line fill="none" stroke="#8F869D" stroke-miterlimit="10" x1="932.103" y1="-8" x2="912.102" y2="229"/>
			<line fill="none" stroke="#8F869D" stroke-miterlimit="10" x1="936.371" y1="-8" x2="916.371" y2="229"/>
			<line fill="none" stroke="#8F869D" stroke-miterlimit="10" x1="940.638" y1="-8" x2="920.638" y2="229"/>
			<line fill="none" stroke="#8F869D" stroke-miterlimit="10" x1="944.906" y1="-8" x2="924.906" y2="229"/>
			<line fill="none" stroke="#8F869D" stroke-miterlimit="10" x1="949.173" y1="-8" x2="929.173" y2="229"/>
			<line fill="none" stroke="#8F869D" stroke-miterlimit="10" x1="953.441" y1="-8" x2="933.441" y2="229"/>
			<line fill="none" stroke="#8F869D" stroke-miterlimit="10" x1="957.708" y1="-8" x2="937.708" y2="229"/>
			<line fill="none" stroke="#8F869D" stroke-miterlimit="10" x1="961.977" y1="-8" x2="941.976" y2="229"/>
			<line fill="none" stroke="#8F869D" stroke-miterlimit="10" x1="966.244" y1="-8" x2="946.244" y2="229"/>
			<line fill="none" stroke="#8F869D" stroke-miterlimit="10" x1="970.512" y1="-8" x2="950.512" y2="229"/>
			<line fill="none" stroke="#8F869D" stroke-miterlimit="10" x1="974.78" y1="-8" x2="954.78" y2="229"/>
			<line fill="none" stroke="#8F869D" stroke-miterlimit="10" x1="979.047" y1="-8" x2="959.047" y2="229"/>
			<line fill="none" stroke="#8F869D" stroke-miterlimit="10" x1="983.315" y1="-8" x2="963.315" y2="229"/>
			<line fill="none" stroke="#8F869D" stroke-miterlimit="10" x1="987.583" y1="-8" x2="967.583" y2="229"/>
			<line fill="none" stroke="#8F869D" stroke-miterlimit="10" x1="991.85" y1="-8" x2="971.851" y2="229"/>
			<line fill="none" stroke="#8F869D" stroke-miterlimit="10" x1="996.119" y1="-8" x2="976.119" y2="229"/>
			<line fill="none" stroke="#8F869D" stroke-miterlimit="10" x1="1000.386" y1="-8" x2="980.386" y2="229"/>
			<line fill="none" stroke="#8F869D" stroke-miterlimit="10" x1="1004.654" y1="-8" x2="984.654" y2="229"/>
			<line fill="none" stroke="#8F869D" stroke-miterlimit="10" x1="1008.921" y1="-8" x2="988.921" y2="229"/>
			<line fill="none" stroke="#8F869D" stroke-miterlimit="10" x1="1013.189" y1="-8" x2="993.189" y2="229"/>
			<line fill="none" stroke="#8F869D" stroke-miterlimit="10" x1="1017.457" y1="-8" x2="997.458" y2="229"/>
			<line fill="none" stroke="#8F869D" stroke-miterlimit="10" x1="1021.724" y1="-8" x2="1001.724" y2="229"/>
			<line fill="none" stroke="#8F869D" stroke-miterlimit="10" x1="1025.993" y1="-8" x2="1005.993" y2="229"/>
			<line fill="none" stroke="#8F869D" stroke-miterlimit="10" x1="1030.259" y1="-8" x2="1010.26" y2="229"/>
			<line fill="none" stroke="#8F869D" stroke-miterlimit="10" x1="1034.528" y1="-8" x2="1014.528" y2="229"/>
			<line fill="none" stroke="#8F869D" stroke-miterlimit="10" x1="1038.795" y1="-8" x2="1018.795" y2="229"/>
			<line fill="none" stroke="#8F869D" stroke-miterlimit="10" x1="1043.064" y1="-8" x2="1023.063" y2="229"/>
			<line fill="none" stroke="#8F869D" stroke-miterlimit="10" x1="1047.331" y1="-8" x2="1027.332" y2="229"/>
			<line fill="none" stroke="#8F869D" stroke-miterlimit="10" x1="1051.599" y1="-8" x2="1031.598" y2="229"/>
			<line fill="none" stroke="#8F869D" stroke-miterlimit="10" x1="1055.867" y1="-8" x2="1035.867" y2="229"/>
			<line fill="none" stroke="#8F869D" stroke-miterlimit="10" x1="1060.134" y1="-8" x2="1040.134" y2="229"/>
			<line fill="none" stroke="#8F869D" stroke-miterlimit="10" x1="1064.402" y1="-8" x2="1044.402" y2="229"/>
			<line fill="none" stroke="#8F869D" stroke-miterlimit="10" x1="1068.669" y1="-8" x2="1048.669" y2="229"/>
			<line fill="none" stroke="#8F869D" stroke-miterlimit="10" x1="1072.937" y1="-8" x2="1052.937" y2="229"/>
			<line fill="none" stroke="#8F869D" stroke-miterlimit="10" x1="1077.205" y1="-8" x2="1057.205" y2="229"/>
			<line fill="none" stroke="#8F869D" stroke-miterlimit="10" x1="1081.473" y1="-8" x2="1061.473" y2="229"/>
			<line fill="none" stroke="#8F869D" stroke-miterlimit="10" x1="1085.741" y1="-8" x2="1065.741" y2="229"/>
			<line fill="none" stroke="#8F869D" stroke-miterlimit="10" x1="1090.008" y1="-8" x2="1070.008" y2="229"/>
			<line fill="none" stroke="#8F869D" stroke-miterlimit="10" x1="1094.276" y1="-8" x2="1074.276" y2="229"/>
			<line fill="none" stroke="#8F869D" stroke-miterlimit="10" x1="1098.543" y1="-8" x2="1078.543" y2="229"/>
			<line fill="none" stroke="#8F869D" stroke-miterlimit="10" x1="1102.811" y1="-8" x2="1082.812" y2="229"/>
			<line fill="none" stroke="#8F869D" stroke-miterlimit="10" x1="1107.08" y1="-8" x2="1087.08" y2="229"/>
			<line fill="none" stroke="#8F869D" stroke-miterlimit="10" x1="1111.347" y1="-8" x2="1091.347" y2="229"/>
			<line fill="none" stroke="#8F869D" stroke-miterlimit="10" x1="1115.615" y1="-8" x2="1095.615" y2="229"/>
			<line fill="none" stroke="#8F869D" stroke-miterlimit="10" x1="1119.882" y1="-8" x2="1099.882" y2="229"/>
			<line fill="none" stroke="#8F869D" stroke-miterlimit="10" x1="1124.15" y1="-8" x2="1104.15" y2="229"/>
			<line fill="none" stroke="#8F869D" stroke-miterlimit="10" x1="1128.417" y1="-8" x2="1108.417" y2="229"/>
			<line fill="none" stroke="#8F869D" stroke-miterlimit="10" x1="1132.685" y1="-8" x2="1112.686" y2="229"/>
			<line fill="none" stroke="#8F869D" stroke-miterlimit="10" x1="1136.954" y1="-8" x2="1116.953" y2="229"/>
			<line fill="none" stroke="#8F869D" stroke-miterlimit="10" x1="1141.221" y1="-8" x2="1121.221" y2="229"/>
			<line fill="none" stroke="#8F869D" stroke-miterlimit="10" x1="1145.489" y1="-8" x2="1125.489" y2="229"/>
			<line fill="none" stroke="#8F869D" stroke-miterlimit="10" x1="1149.756" y1="-8" x2="1129.756" y2="229"/>
			<line fill="none" stroke="#8F869D" stroke-miterlimit="10" x1="1154.024" y1="-8" x2="1134.024" y2="229"/>
			<line fill="none" stroke="#8F869D" stroke-miterlimit="10" x1="1158.292" y1="-8" x2="1138.292" y2="229"/>
			<line fill="none" stroke="#8F869D" stroke-miterlimit="10" x1="1162.56" y1="-8" x2="1142.56" y2="229"/>
			<line fill="none" stroke="#8F869D" stroke-miterlimit="10" x1="1166.828" y1="-8" x2="1146.828" y2="229"/>
			<line fill="none" stroke="#8F869D" stroke-miterlimit="10" x1="1171.095" y1="-8" x2="1151.095" y2="229"/>
			<line fill="none" stroke="#8F869D" stroke-miterlimit="10" x1="1175.363" y1="-8" x2="1155.363" y2="229"/>
			<line fill="none" stroke="#8F869D" stroke-miterlimit="10" x1="1179.63" y1="-8" x2="1159.63" y2="229"/>
			<line fill="none" stroke="#8F869D" stroke-miterlimit="10" x1="1183.898" y1="-8" x2="1163.898" y2="229"/>
			<line fill="none" stroke="#8F869D" stroke-miterlimit="10" x1="1188.167" y1="-8" x2="1168.167" y2="229"/>
			<line fill="none" stroke="#8F869D" stroke-miterlimit="10" x1="1192.433" y1="-8" x2="1172.433" y2="229"/>
			<line fill="none" stroke="#8F869D" stroke-miterlimit="10" x1="1196.702" y1="-8" x2="1176.702" y2="229"/>
			<line fill="none" stroke="#8F869D" stroke-miterlimit="10" x1="1200.968" y1="-8" x2="1180.969" y2="229"/>
			<line fill="none" stroke="#8F869D" stroke-miterlimit="10" x1="1205.237" y1="-8" x2="1185.237" y2="229"/>
			<line fill="none" stroke="#8F869D" stroke-miterlimit="10" x1="1209.504" y1="-8" x2="1189.504" y2="229"/>
			<line fill="none" stroke="#8F869D" stroke-miterlimit="10" x1="1213.772" y1="-8" x2="1193.773" y2="229"/>
			<line fill="none" stroke="#8F869D" stroke-miterlimit="10" x1="1218.041" y1="-8" x2="1198.04" y2="229"/>
			<line fill="none" stroke="#8F869D" stroke-miterlimit="10" x1="1222.308" y1="-8" x2="1202.307" y2="229"/>
			<line fill="none" stroke="#8F869D" stroke-miterlimit="10" x1="1226.575" y1="-8" x2="1206.576" y2="229"/>
			<line fill="none" stroke="#8F869D" stroke-miterlimit="10" x1="1230.843" y1="-8" x2="1210.843" y2="229"/>
			<line fill="none" stroke="#8F869D" stroke-miterlimit="10" x1="1235.111" y1="-8" x2="1215.111" y2="229"/>
			<line fill="none" stroke="#8F869D" stroke-miterlimit="10" x1="1239.378" y1="-8" x2="1219.378" y2="229"/>
			<line fill="none" stroke="#8F869D" stroke-miterlimit="10" x1="1243.647" y1="-8" x2="1223.646" y2="229"/>
			<line fill="none" stroke="#8F869D" stroke-miterlimit="10" x1="1247.915" y1="-8" x2="1227.914" y2="229"/>
			<line fill="none" stroke="#8F869D" stroke-miterlimit="10" x1="1252.181" y1="-8" x2="1232.182" y2="229"/>
			<line fill="none" stroke="#8F869D" stroke-miterlimit="10" x1="1256.45" y1="-8" x2="1236.45" y2="229"/>
			<line fill="none" stroke="#8F869D" stroke-miterlimit="10" x1="1260.717" y1="-8" x2="1240.717" y2="229"/>
			<line fill="none" stroke="#8F869D" stroke-miterlimit="10" x1="1264.985" y1="-8" x2="1244.985" y2="229"/>
			<line fill="none" stroke="#8F869D" stroke-miterlimit="10" x1="1269.252" y1="-8" x2="1249.252" y2="229"/>
			<line fill="none" stroke="#8F869D" stroke-miterlimit="10" x1="1273.521" y1="-8" x2="1253.521" y2="229"/>
			<line fill="none" stroke="#8F869D" stroke-miterlimit="10" x1="1277.788" y1="-8" x2="1257.789" y2="229"/>
			<line fill="none" stroke="#8F869D" stroke-miterlimit="10" x1="1282.055" y1="-8" x2="1262.055" y2="229"/>
			<line fill="none" stroke="#8F869D" stroke-miterlimit="10" x1="1286.324" y1="-8" x2="1266.324" y2="229"/>
			<line fill="none" stroke="#8F869D" stroke-miterlimit="10" x1="1290.591" y1="-8" x2="1270.591" y2="229"/>
		</g>
	</g>
</g>
</svg>
